{"glyphs":{"0":{"ha":911,"x_min":83,"x_max":775,"o":"m 724 419 q 651 655 717 556 q 429 777 571 775 q 203 663 286 779 q 137 426 131 561 q 208 193 143 291 q 427 72 287 74 q 654 184 570 70 q 724 419 730 285 m 775 417 q 693 140 782 259 q 425 8 593 6 q 167 151 260 10 q 83 425 90 265 q 161 705 76 585 q 428 839 258 841 q 690 695 595 837 q 775 417 767 578 z "},"1":{"ha":436,"x_min":-5,"x_max":233,"o":"m 176 7 l 176 750 l 46 616 l -5 651 l 176 835 l 233 834 l 233 5 l 176 7 z "},"2":{"ha":648,"x_min":-3,"x_max":517,"o":"m -3 0 q 49 145 1 70 q 155 272 85 201 q 271 383 214 328 q 400 602 400 511 q 351 714 400 669 q 225 760 302 760 q 79 676 120 760 l 8 678 q 98 785 27 745 q 247 818 166 823 q 392 757 336 812 q 458 580 458 693 q 405 443 458 515 q 284 317 368 394 l 216 255 q 78 50 94 140 l 517 50 l 517 0 l -3 0 z "},"3":{"ha":668,"x_min":2,"x_max":510,"o":"m 282 3 q 248 2 265 2 q 84 58 151 2 q 2 199 23 109 l 53 200 q 244 64 89 64 q 439 256 439 64 q 329 440 439 348 q 171 383 271 389 l 172 446 q 313 515 245 452 q 381 651 381 578 q 345 732 381 703 q 250 761 309 761 q 116 728 215 761 l 116 794 q 262 830 202 830 q 368 797 323 830 q 450 640 450 740 q 364 482 450 579 q 478 370 445 421 q 510 250 510 318 q 282 3 510 25 z "},"4":{"ha":797,"x_min":-31,"x_max":644,"o":"m 643 166 l 444 166 l 444 -55 l 387 -55 l 387 166 l 65 166 q -31 165 43 166 l 386 798 l 444 796 l 444 215 l 644 215 l 643 166 m 387 677 l 70 215 l 387 215 l 387 677 z "},"5":{"ha":765,"x_min":14,"x_max":576,"o":"m 325 0 q 92 68 175 0 q 14 226 19 129 l 66 226 q 313 53 107 53 q 466 112 408 53 q 525 259 525 172 q 458 395 525 347 q 303 439 399 439 q 159 411 227 439 l 104 411 l 104 785 l 533 785 l 534 738 l 154 738 l 154 473 q 289 488 223 488 q 491 430 415 488 q 576 237 576 364 q 500 70 576 139 q 325 0 423 0 z "},"6":{"ha":684,"x_min":0,"x_max":535,"o":"m 354 -8 q 87 108 184 -8 q 0 366 0 214 q 92 642 0 524 q 232 740 137 700 q 410 788 316 776 l 410 734 q 267 706 318 726 q 156 627 206 682 q 59 359 59 518 q 62 300 59 340 q 271 375 158 375 q 459 316 383 375 q 535 162 535 256 q 482 47 535 99 q 354 -8 426 -8 m 344 314 q 252 321 310 323 q 79 254 153 318 q 173 111 92 176 q 333 45 253 45 q 376 52 356 45 q 464 126 440 74 q 475 171 475 149 q 432 261 475 218 q 344 314 392 301 z "},"7":{"ha":776,"x_min":-53,"x_max":537,"o":"m 531 782 q 204 -12 523 758 l 139 -12 l 456 749 l -52 749 l -53 799 l 537 799 l 531 782 z "},"8":{"ha":662,"x_min":45,"x_max":525,"o":"m 525 183 q 441 45 525 99 q 280 -1 369 -1 q 121 55 192 -1 q 45 200 45 115 q 107 324 45 266 q 227 411 136 351 q 45 613 45 485 q 119 760 45 707 q 281 806 183 806 q 443 751 369 806 q 524 606 524 691 q 452 486 524 545 q 325 404 448 483 q 458 318 403 371 q 525 183 525 254 m 279 433 l 317 449 l 413 512 q 468 602 468 556 q 407 713 468 668 q 284 755 351 755 q 160 719 210 755 q 105 608 105 680 q 243 455 105 511 l 279 433 m 281 376 l 245 354 q 106 200 106 296 q 162 88 106 129 q 286 54 211 54 q 409 95 353 54 q 470 205 470 141 q 415 295 470 251 q 319 359 411 299 l 281 376 z "},"9":{"ha":694,"x_min":10,"x_max":555,"o":"m 498 150 q 270 -2 411 -2 q 85 61 157 -2 q 10 224 13 124 l 69 223 q 131 91 78 139 q 250 47 181 47 q 444 176 381 47 q 499 419 499 285 q 490 531 499 467 q 264 445 393 445 q 86 504 160 445 q 10 659 10 565 q 79 791 10 740 q 236 839 143 839 q 483 713 394 839 q 555 411 555 610 q 498 150 555 251 m 208 777 q 98 737 133 768 q 63 661 63 706 q 93 576 63 618 q 165 513 122 535 q 304 498 219 487 q 472 583 406 511 q 398 722 466 666 q 238 779 329 779 q 208 777 223 779 z "}," ":{"ha":1151,"x_min":0,"x_max":0,"o":""},"!":{"ha":356,"x_min":80,"x_max":226,"o":"m 183 952 l 183 214 q 155 198 183 198 q 128 214 128 198 l 128 952 q 155 970 128 970 q 183 952 183 970 m 226 71 q 204 19 226 41 q 153 -3 182 -3 q 102 19 124 -3 q 80 71 80 41 q 101 124 80 102 q 153 146 122 146 q 205 124 183 146 q 226 71 226 102 z "},"\"":{"ha":555,"x_min":115,"x_max":467,"o":"m 467 839 q 406 706 464 769 q 344 655 360 655 l 328 692 q 411 797 375 716 q 369 813 388 797 q 350 853 350 830 q 367 905 350 882 q 414 925 385 927 q 467 839 470 923 m 251 837 q 190 704 248 768 q 129 654 145 654 l 115 688 q 196 796 157 710 q 153 812 173 796 q 134 852 134 829 q 152 903 134 881 q 199 924 170 925 q 251 837 254 921 z "},"#":{"ha":678,"x_min":39,"x_max":641,"o":"m 632 425 l 454 425 l 424 272 l 611 275 l 604 221 l 416 221 l 376 0 l 318 0 l 360 225 l 238 225 l 196 -1 l 142 0 l 183 225 l 39 220 l 52 272 l 189 272 l 220 425 l 80 427 l 90 482 l 232 482 l 272 710 l 326 710 l 288 482 l 410 482 l 449 710 l 507 710 l 467 482 l 641 480 l 632 425 m 396 425 l 273 425 l 243 272 l 365 272 l 396 425 z "},"$":{"ha":645,"x_min":82,"x_max":527,"o":"m 341 356 l 341 39 q 440 102 401 55 q 480 210 480 149 q 434 301 480 263 q 341 356 406 325 m 297 429 l 297 701 q 207 659 243 701 q 171 562 171 618 q 213 480 171 514 q 297 429 236 460 m 297 36 l 297 376 q 179 444 203 425 q 124 560 124 489 q 171 690 124 639 q 297 748 218 741 l 297 852 l 341 852 l 341 747 q 490 645 444 731 l 454 615 q 341 701 409 693 l 341 407 q 468 334 445 353 q 527 205 527 285 q 472 67 527 128 q 341 -7 418 7 l 341 -120 l 297 -120 l 297 -9 q 82 150 137 -6 l 121 168 q 297 36 174 32 z "},"%":{"ha":711,"x_min":4,"x_max":625,"o":"m 273 655 q 237 569 273 605 q 150 532 200 532 q 64 569 100 532 q 28 655 28 605 q 64 742 28 706 q 150 778 100 778 q 237 742 200 778 q 273 655 273 706 m 623 819 l 56 -41 q 25 -53 48 -53 q 4 -43 4 -53 q 6 -39 5 -40 l 575 834 q 593 840 580 840 l 593 840 q 625 828 625 840 q 623 819 625 825 m 583 124 q 547 36 583 73 q 461 0 511 0 q 374 36 411 0 q 338 124 338 73 q 374 210 338 174 q 461 246 411 246 q 547 210 511 246 q 583 124 583 174 m 248 655 q 220 725 248 696 q 150 754 191 754 q 81 725 109 754 q 52 655 52 696 q 81 587 52 617 q 150 557 110 557 q 220 586 191 557 q 248 655 248 615 m 558 124 q 530 193 558 164 q 461 223 502 223 q 391 193 420 223 q 363 124 363 164 q 391 54 363 83 q 461 25 420 25 q 530 54 502 25 q 558 124 558 83 z "},"&":{"ha":711,"x_min":10,"x_max":608,"o":"m 560 -7 q 448 101 509 29 q 234 -5 352 -5 q 76 53 142 -5 q 10 201 10 110 q 193 418 10 331 q 103 583 103 522 q 156 696 103 652 q 277 738 207 738 q 393 697 345 738 q 440 590 440 657 q 293 414 440 492 l 443 223 q 486 332 474 278 l 560 317 q 495 165 537 229 q 608 50 547 95 l 560 -7 m 277 682 q 209 656 237 682 q 180 589 180 629 q 220 505 180 552 l 265 453 q 371 585 371 515 q 277 682 371 682 m 228 384 q 90 213 90 302 q 133 106 90 152 q 238 61 176 61 q 407 164 341 61 l 228 384 z "},"'":{"ha":278,"x_min":77,"x_max":204,"o":"m 204 850 q 102 688 197 688 q 84 699 92 688 q 77 721 77 711 q 111 740 77 731 q 149 809 136 750 q 106 825 126 809 q 87 864 87 841 q 105 916 87 894 q 152 936 123 937 q 204 850 208 933 z "},"(":{"ha":555,"x_min":120,"x_max":415,"o":"m 415 -263 l 404 -278 q 332 -204 385 -268 q 120 393 129 38 q 322 996 109 744 q 404 1079 330 1005 l 412 1070 q 174 393 171 745 q 223 93 175 250 q 353 -179 272 -72 l 415 -263 z "},")":{"ha":555,"x_min":87,"x_max":384,"o":"m 384 393 q 171 -204 374 37 q 99 -278 114 -272 l 87 -263 q 150 -179 110 -235 q 266 49 214 -89 q 329 393 328 218 q 90 1070 332 744 l 99 1079 q 384 393 394 812 z "},"*":{"ha":456,"x_min":106,"x_max":378,"o":"m 334 794 q 260 847 301 788 q 282 759 282 790 q 264 732 282 732 q 211 779 211 732 q 232 844 211 807 q 143 768 173 768 q 129 778 134 768 q 129 834 116 806 q 217 864 143 862 q 106 905 106 875 q 147 943 106 934 q 225 886 180 951 q 193 986 193 952 q 211 1011 193 1010 q 254 999 236 1013 q 272 960 272 985 q 251 892 272 932 q 336 976 308 976 q 350 967 344 976 q 351 914 363 944 q 268 872 340 883 q 378 834 379 867 q 334 794 377 803 z "},"+":{"ha":816,"x_min":29,"x_max":754,"o":"m 741 372 l 414 372 l 414 41 q 393 29 414 29 q 372 41 372 29 l 372 372 l 41 372 q 29 393 29 372 q 41 414 29 414 l 372 414 l 372 741 q 393 754 372 754 q 414 741 414 754 l 414 414 l 741 414 q 754 393 754 414 q 741 372 754 372 z "},",":{"ha":278,"x_min":41,"x_max":175,"o":"m 175 39 q 114 -94 172 -30 q 53 -145 69 -145 l 41 -133 q 120 -3 120 -106 q 86 7 104 -3 q 56 53 56 24 q 74 104 56 83 q 122 125 92 125 q 165 95 152 125 q 175 39 176 70 z "},"-":{"ha":434,"x_min":47,"x_max":344,"o":"m 344 369 l 47 369 l 47 414 l 344 414 l 344 369 z "},".":{"ha":434,"x_min":205,"x_max":353,"o":"m 353 71 q 331 19 353 41 q 279 -3 309 -3 q 227 19 249 -3 q 205 71 205 41 q 227 124 205 102 q 279 146 248 146 q 331 124 310 146 q 353 71 353 102 z "},"/":{"ha":434,"x_min":16,"x_max":286,"o":"m 286 977 l 39 -195 l 16 -195 l 264 977 l 286 977 z "},":":{"ha":278,"x_min":59,"x_max":208,"o":"m 208 558 q 187 505 208 528 q 134 483 165 483 q 82 505 104 483 q 59 558 59 528 q 82 611 59 589 q 134 632 104 632 q 186 610 164 632 q 208 558 208 588 m 208 207 q 186 155 208 177 q 134 133 164 133 q 82 155 104 133 q 59 207 59 176 q 82 259 59 238 q 134 280 104 280 q 186 258 164 280 q 208 207 208 236 z "},";":{"ha":278,"x_min":41,"x_max":193,"o":"m 193 385 q 172 332 193 354 q 120 310 151 310 q 67 332 88 310 q 46 385 46 354 q 68 436 46 414 q 120 458 90 458 q 171 436 149 458 q 193 385 193 414 m 190 49 q 124 -89 190 -20 q 53 -145 70 -145 l 41 -133 q 120 -3 120 -106 q 82 7 103 -3 q 46 53 46 24 q 122 140 45 140 q 190 49 190 140 z "},"<":{"ha":555,"x_min":56,"x_max":520,"o":"m 447 698 q 464 687 453 705 q 469 663 475 669 q 297 520 453 645 q 103 341 148 399 q 301 214 134 306 q 517 57 463 125 q 520 47 520 54 q 511 23 520 36 q 492 9 502 9 q 483 12 486 9 q 277 166 452 53 q 56 346 102 280 q 227 502 76 374 q 447 698 392 639 z "},"=":{"ha":816,"x_min":41,"x_max":741,"o":"m 741 487 l 41 487 l 41 529 l 741 529 l 741 487 m 741 251 l 41 251 l 41 294 l 741 294 l 741 251 z "},">":{"ha":555,"x_min":52,"x_max":515,"o":"m 124 698 q 108 691 118 705 q 99 668 99 676 q 102 663 99 664 q 273 520 116 646 q 468 341 424 398 q 270 214 436 306 q 54 57 107 125 q 52 47 52 54 q 60 22 52 35 q 80 9 68 9 q 87 12 83 9 q 295 169 123 60 q 515 346 467 277 q 341 502 494 374 q 124 698 177 639 z "},"?":{"ha":555,"x_min":53,"x_max":453,"o":"m 453 816 q 397 673 453 735 l 286 550 q 187 341 187 439 q 206 278 187 319 q 225 245 225 237 l 202 245 q 164 394 164 369 q 283 617 165 494 l 364 700 q 406 831 404 751 q 358 953 407 906 q 233 1002 310 1000 q 108 933 149 1005 q 154 915 135 933 q 173 869 173 896 q 153 831 173 847 q 111 814 134 814 q 53 881 53 814 q 119 981 53 937 q 239 1022 178 1021 q 391 965 329 1024 q 453 816 453 906 m 288 71 q 266 19 288 40 q 214 -3 245 -3 q 162 19 184 -3 q 140 71 140 41 q 162 124 140 102 q 214 146 183 146 q 266 124 245 146 q 288 71 288 102 z "},"@":{"ha":711,"x_min":32,"x_max":689,"o":"m 396 207 q 289 149 346 149 q 182 223 218 149 q 164 306 164 259 q 191 414 164 360 q 261 498 218 469 q 344 527 304 527 q 449 462 410 527 l 461 517 l 522 517 l 472 283 q 462 229 462 238 q 486 207 462 207 q 552 242 516 207 q 598 303 580 270 q 621 399 621 349 q 546 561 621 501 q 372 618 477 618 q 120 471 196 618 q 83 318 83 401 q 242 77 83 134 q 382 52 310 52 q 626 157 552 52 l 689 157 q 527 22 646 67 q 384 0 467 0 q 133 76 226 0 q 32 313 32 159 q 71 486 32 407 q 188 620 112 573 q 375 668 264 668 q 639 528 560 668 q 672 397 672 468 q 613 231 672 308 q 462 149 549 149 q 403 176 416 149 q 396 207 399 185 m 220 298 q 237 232 220 261 q 294 199 258 199 q 388 260 350 199 q 421 374 421 313 q 401 441 421 414 q 341 472 379 472 q 249 411 285 472 q 220 298 220 359 z "},"[":{"ha":434,"x_min":18,"x_max":346,"o":"m 346 -270 l 18 -270 l 18 1078 l 346 1078 l 346 1021 l 134 1021 l 134 -213 l 346 -213 l 346 -270 z "},"\\":{"ha":434,"x_min":16,"x_max":286,"o":"m 16 977 l 264 -195 l 286 -195 l 39 977 l 16 977 z "},"]":{"ha":434,"x_min":18,"x_max":346,"o":"m 18 -270 l 346 -270 l 346 1078 l 18 1078 l 18 1021 l 229 1021 l 229 -213 l 18 -213 l 18 -270 z "},"^":{"ha":645,"x_min":13,"x_max":549,"o":"m 549 574 q 537 557 554 568 q 512 552 519 546 q 414 670 494 569 q 280 812 338 768 q 176 683 243 774 q 62 554 109 592 q 53 552 59 552 q 28 560 42 552 q 13 579 13 569 q 18 588 13 584 q 151 723 69 624 q 285 859 232 822 q 396 740 314 839 q 549 574 490 627 z "},"_":{"ha":816,"x_min":37,"x_max":738,"o":"m 738 -108 l 37 -108 l 37 -65 l 738 -65 l 738 -108 z "},"{":{"ha":434,"x_min":40,"x_max":323,"o":"m 323 -270 q 133 -44 133 -270 l 133 217 q 121 331 133 298 q 40 406 102 381 q 133 592 133 447 l 133 880 q 323 1086 133 1066 q 235 902 235 1029 l 235 614 q 173 450 235 516 q 108 404 152 429 q 171 360 158 373 q 235 183 235 294 l 235 -89 q 323 -270 235 -214 z "},"|":{"ha":278,"x_min":139,"x_max":164,"o":"m 161 993 l 164 -205 l 142 -210 l 139 989 l 161 993 z "},"}":{"ha":434,"x_min":40,"x_max":323,"o":"m 40 -270 q 230 -44 230 -270 l 230 217 q 243 331 230 298 q 323 406 263 381 q 230 592 230 447 l 230 880 q 40 1086 230 1066 q 129 902 129 1029 l 129 614 q 192 450 129 516 q 255 404 212 429 q 193 360 205 373 q 129 183 129 294 l 129 -89 q 40 -270 129 -214 z "},"~":{"ha":645,"x_min":35,"x_max":546,"o":"m 546 391 q 411 339 484 339 q 320 353 371 339 q 164 384 210 384 q 68 339 103 384 l 35 369 q 170 422 84 422 q 351 388 207 422 q 412 376 397 376 q 514 422 461 376 l 546 391 z "},"¼":{"ha":922,"x_min":35,"x_max":853,"o":"m 577 725 l 245 0 l 205 18 l 539 743 l 577 725 m 683 243 q 614 115 614 173 q 632 65 614 84 q 679 49 649 46 q 741 122 741 53 q 683 243 741 176 m 667 261 q 595 326 623 303 q 503 397 586 332 q 500 403 500 399 l 500 403 q 514 419 500 419 q 520 418 517 419 q 685 280 598 368 l 754 346 q 800 384 773 364 l 841 414 q 853 406 848 414 q 853 391 858 396 q 774 326 811 360 l 703 261 q 769 122 769 186 q 744 53 769 82 q 681 21 719 24 q 613 46 639 18 q 588 115 588 73 q 667 261 588 180 m 291 600 q 204 578 241 578 q 189 579 196 578 q 182 592 182 579 q 190 605 182 606 q 276 621 236 604 q 329 681 327 641 q 229 753 334 753 q 172 745 194 753 q 114 725 151 737 q 102 743 102 721 q 106 751 102 748 q 229 781 168 781 q 317 756 281 781 q 357 678 361 727 q 311 610 354 634 q 361 499 361 549 q 327 425 361 451 q 245 399 294 399 q 35 570 174 399 l 35 574 q 42 584 35 579 q 54 586 49 588 q 155 475 103 530 q 245 425 202 425 q 306 443 281 425 q 335 499 335 463 q 291 600 335 548 z "},"½":{"ha":922,"x_min":34,"x_max":735,"o":"m 548 725 l 214 0 l 175 18 l 508 743 l 548 725 m 175 636 l 175 711 q 136 743 175 743 q 82 719 105 743 q 59 663 59 694 q 76 623 59 639 q 117 608 93 608 q 175 636 139 608 m 175 602 q 117 582 145 582 q 58 605 82 582 q 34 663 34 627 q 62 740 34 708 q 136 771 91 771 q 182 754 162 771 q 202 713 202 738 l 202 454 q 239 410 202 410 q 268 421 254 410 q 286 446 272 427 q 292 449 288 449 l 292 449 q 304 442 297 449 q 307 429 310 435 q 239 382 278 382 q 175 454 175 382 l 175 602 m 545 164 q 525 186 537 183 q 507 176 507 190 q 545 164 505 164 m 567 167 q 645 266 645 180 q 616 338 645 311 q 542 365 588 365 q 505 357 529 365 q 469 347 481 348 q 454 364 454 345 q 457 371 454 368 q 542 391 492 391 q 636 357 600 391 q 672 266 672 323 q 576 140 672 162 q 586 109 578 132 q 654 34 613 34 q 689 42 666 34 q 719 50 712 50 l 719 50 q 735 35 735 50 q 732 29 735 32 q 654 7 704 7 q 562 100 600 7 q 552 137 556 114 q 483 176 481 137 q 522 208 485 211 q 567 167 551 206 z "},"¾":{"ha":922,"x_min":34,"x_max":825,"o":"m 548 725 l 214 0 l 175 18 l 508 743 l 548 725 m 175 636 l 175 711 q 136 743 175 743 q 82 719 105 743 q 59 663 59 694 q 76 623 59 639 q 117 608 93 608 q 175 636 139 608 m 175 602 q 117 582 145 582 q 58 605 82 582 q 34 663 34 627 q 62 740 34 708 q 136 771 91 771 q 182 754 162 771 q 202 713 202 738 l 202 454 q 239 410 202 410 q 268 421 254 410 q 286 446 272 427 q 292 449 288 449 l 292 449 q 304 442 297 449 q 307 429 310 435 q 239 382 278 382 q 175 454 175 382 l 175 602 m 653 243 q 583 115 583 173 q 600 66 583 85 q 647 49 618 46 q 711 122 711 55 q 653 243 711 176 m 636 261 q 564 326 581 312 q 471 397 557 332 q 469 403 469 399 l 469 403 q 483 419 469 419 q 487 418 486 419 q 653 280 565 368 l 723 346 q 769 384 740 362 l 810 414 q 825 397 825 414 q 822 391 825 394 q 741 326 784 364 l 670 261 q 738 122 738 186 q 713 53 738 82 q 648 21 688 24 q 582 46 607 18 q 557 115 557 73 q 636 261 557 180 z "},"÷":{"ha":816,"x_min":69,"x_max":769,"o":"m 769 353 l 69 353 l 69 396 l 769 396 l 769 353 m 505 558 q 484 505 505 528 q 432 483 462 483 q 378 505 400 483 q 357 558 357 527 q 378 611 357 591 q 432 632 400 632 q 483 610 461 632 q 505 558 505 588 m 505 186 q 483 134 505 156 q 432 112 461 112 q 378 133 400 112 q 357 186 357 154 q 378 239 357 218 q 432 260 400 260 q 483 238 461 260 q 505 186 505 216 z "},"̄":{"ha":0,"x_min":-655,"x_max":0,"o":"m 0 818 l -655 818 l -655 861 l 0 861 l 0 818 z "},"̆":{"ha":0,"x_min":-694,"x_max":23,"o":"m 21 994 q -117 875 -65 906 q -335 817 -212 817 q -561 880 -462 817 q -693 996 -610 910 q -694 1000 -694 998 q -639 1016 -694 1016 q -610 1010 -618 1016 q -505 916 -571 977 q -335 864 -431 864 q -163 914 -237 864 q -61 1008 -124 940 q -35 1015 -56 1015 q 23 999 23 1015 q 21 994 23 996 z "},"॑":{"ha":0,"x_min":-124,"x_max":-68,"o":"m -68 1075 l -68 827 q -96 818 -68 818 q -124 827 -124 818 l -124 1075 q -96 1083 -124 1083 q -68 1075 -68 1083 z "},"॒":{"ha":0,"x_min":-693,"x_max":-107,"o":"m -107 -40 l -693 -40 l -693 3 l -107 3 l -107 -40 z "},"॓":{"ha":0,"x_min":-245,"x_max":-27,"o":"m -203 1032 l -28 857 q -27 853 -27 855 q -42 831 -27 846 q -64 816 -57 816 q -67 817 -66 816 l -243 993 q -245 997 -245 995 q -230 1019 -245 1003 q -207 1034 -215 1034 q -203 1032 -205 1034 z "},"॔":{"ha":0,"x_min":-239,"x_max":-22,"o":"m -61 1032 q -27 1013 -54 1040 q -22 993 -14 1000 l -199 817 q -201 816 -200 816 q -224 831 -209 816 q -239 853 -239 846 q -238 857 -239 856 l -61 1032 z "},"।":{"ha":231,"x_min":78,"x_max":137,"o":"m 107 0 q 78 19 78 0 l 78 753 q 107 772 78 772 q 137 753 137 772 l 137 19 q 107 0 137 0 z "},"॥":{"ha":463,"x_min":106,"x_max":346,"o":"m 317 0 q 286 19 286 0 l 286 753 q 317 772 286 772 q 346 753 346 772 l 346 19 q 317 0 346 0 m 136 0 q 106 19 106 0 l 106 753 q 136 772 106 772 q 166 753 166 772 l 166 19 q 136 0 166 0 z "},"॰":{"ha":499,"x_min":82,"x_max":409,"o":"m 409 200 q 348 97 409 97 q 246 36 348 36 q 142 97 142 36 q 82 200 82 97 q 142 305 82 305 q 246 364 142 364 q 348 305 348 364 q 409 200 409 305 m 359 200 q 317 272 359 272 q 246 315 317 315 q 174 272 174 315 q 131 200 131 272 q 174 128 131 128 q 246 86 174 86 q 317 128 317 86 q 359 200 359 128 z "},"ઁ":{"ha":0,"x_min":-575,"x_max":-102,"o":"m -272 1045 q -289 1002 -272 1022 q -328 983 -305 983 q -367 1002 -351 983 q -384 1045 -384 1022 q -367 1087 -384 1068 q -328 1107 -351 1107 q -289 1087 -305 1107 q -272 1045 -272 1068 m -102 1073 q -335 840 -189 843 q -483 918 -415 838 q -535 995 -496 932 q -575 1066 -575 1057 l -575 1066 q -552 1086 -575 1078 q -524 1082 -530 1094 q -450 952 -463 969 q -335 895 -403 893 q -223 960 -270 896 q -157 1079 -199 991 q -128 1092 -151 1092 q -102 1073 -95 1092 z "},"ં":{"ha":0,"x_min":-255,"x_max":-121,"o":"m -121 876 q -141 828 -121 849 q -187 808 -161 808 q -235 828 -216 808 q -255 876 -255 848 q -235 922 -255 902 q -187 942 -214 942 q -141 922 -161 942 q -121 876 -121 902 z "},"ઃ":{"ha":278,"x_min":62,"x_max":211,"o":"m 211 517 q 189 464 211 486 q 137 441 168 441 q 84 464 106 441 q 62 517 62 486 q 84 569 62 548 q 137 590 106 590 q 189 568 167 590 q 211 517 211 546 m 211 165 q 189 114 211 136 q 137 92 167 92 q 84 113 106 92 q 62 165 62 134 q 84 217 62 196 q 137 239 106 239 q 189 217 167 239 q 211 165 211 195 z "},"અ":{"ha":1144,"x_min":37,"x_max":1053,"o":"m 1053 84 q 932 -19 991 -19 q 825 16 865 -19 q 785 117 785 51 l 785 756 q 812 772 785 772 q 840 756 840 772 l 840 117 q 932 36 840 36 q 1001 106 957 36 q 1017 112 1007 112 l 1017 112 q 1044 106 1029 112 q 1053 84 1060 96 m 154 365 q 112 388 139 388 q 97 379 102 388 q 99 366 93 372 q 154 365 115 349 m 567 474 q 564 500 568 482 q 552 514 559 518 q 546 505 546 511 q 567 474 546 484 m 788 418 q 719 379 769 401 q 691 376 707 376 q 615 385 660 376 q 546 248 599 317 q 393 173 487 174 q 204 273 302 171 q 179 317 192 286 q 117 306 143 306 q 40 378 40 306 q 111 443 40 440 q 196 382 154 445 q 335 565 335 446 q 306 653 335 608 q 204 706 270 706 q 121 681 175 706 l 67 655 q 46 670 56 655 q 37 693 37 681 q 41 701 37 700 q 204 762 142 762 q 347 694 298 762 q 390 565 390 636 q 226 335 390 422 q 246 311 231 327 q 393 227 324 226 q 515 297 472 229 q 562 411 553 357 q 511 456 543 424 q 496 509 496 481 q 552 570 496 563 q 629 482 618 576 q 627 459 629 474 q 625 436 625 444 q 708 435 664 428 q 750 454 725 437 q 788 480 784 477 l 788 418 z "},"આ":{"ha":1489,"x_min":37,"x_max":1371,"o":"m 154 365 q 112 388 139 388 q 97 379 102 388 q 99 366 93 372 q 154 365 115 349 m 567 474 q 564 500 568 482 q 552 514 559 518 q 546 505 546 511 q 567 474 546 484 m 788 418 q 719 379 769 401 q 691 376 707 376 q 615 385 660 376 q 546 248 599 317 q 393 173 487 174 q 204 273 302 171 q 179 317 192 286 q 117 306 143 306 q 40 378 40 306 q 111 443 40 440 q 196 382 154 445 q 335 565 335 446 q 306 653 335 608 q 204 706 270 706 q 121 681 175 706 l 67 655 q 46 670 56 655 q 37 693 37 681 q 41 701 37 700 q 204 762 142 762 q 347 694 298 762 q 390 565 390 636 q 226 335 390 422 q 246 311 231 327 q 393 227 324 226 q 515 297 472 229 q 562 411 553 357 q 511 456 543 424 q 496 509 496 481 q 552 570 496 563 q 629 482 618 576 q 627 459 629 474 q 625 436 625 444 q 708 435 664 428 q 750 454 725 437 q 788 480 784 477 l 788 418 m 788 480 m 1053 84 q 932 -19 991 -19 q 825 16 865 -19 q 785 117 785 51 l 785 756 q 812 772 785 772 q 840 756 840 772 l 840 117 q 932 36 840 36 q 1001 106 957 36 q 1017 112 1007 112 l 1017 112 q 1044 106 1029 112 q 1053 84 1060 96 m 1371 84 q 1250 -19 1309 -19 q 1143 16 1184 -19 q 1103 117 1103 51 l 1103 756 q 1131 772 1103 772 q 1159 756 1159 772 l 1159 117 q 1250 36 1159 36 q 1320 106 1275 36 q 1335 112 1326 112 l 1335 112 q 1361 106 1348 112 q 1371 84 1377 96 z "},"ઇ":{"ha":778,"x_min":27,"x_max":670,"o":"m 288 418 q 354 432 310 424 q 372 440 372 434 q 357 454 372 454 q 288 418 341 454 m 211 432 q 242 454 214 435 q 368 496 301 496 q 427 450 427 496 q 336 372 427 409 q 223 369 285 351 q 157 245 160 312 q 219 99 153 156 q 371 44 281 44 q 545 117 476 44 q 614 295 614 191 q 577 474 614 392 q 482 635 550 537 q 331 950 331 853 q 414 1091 331 1033 q 561 1143 483 1138 q 580 1113 580 1144 q 567 1088 580 1092 q 450 1046 483 1065 q 387 950 387 1009 q 527 666 387 867 q 630 492 603 555 q 670 295 670 402 q 584 80 670 168 q 371 -12 498 -12 q 177 59 256 -12 q 102 247 94 134 q 168 393 106 332 q 75 479 118 424 q 27 592 27 541 q 90 698 27 645 q 201 768 135 737 q 223 760 213 773 q 233 734 233 746 q 226 718 233 722 q 139 666 155 678 q 82 592 82 623 q 128 499 82 550 q 211 432 166 456 z "},"ઈ":{"ha":800,"x_min":25,"x_max":776,"o":"m 218 431 q 286 474 241 455 q 364 493 331 493 q 415 452 415 493 q 301 371 415 398 q 230 369 267 363 q 158 218 153 304 q 228 89 162 142 q 369 39 292 39 q 552 125 480 39 q 617 318 621 206 q 457 673 612 449 q 374 797 435 705 q 334 939 335 857 q 368 1055 332 1006 q 474 1111 409 1107 q 776 1008 600 1118 q 765 981 779 992 q 735 970 752 970 q 477 1055 584 1062 q 409 1017 433 1053 q 388 939 388 985 q 429 810 390 863 q 505 704 448 784 q 672 320 668 468 q 592 87 676 184 q 369 -13 505 -13 q 190 50 269 -13 q 103 215 107 116 q 176 399 98 320 q 25 582 28 503 q 109 713 22 650 q 202 765 162 750 q 226 755 214 769 q 238 729 238 741 q 230 718 238 720 q 81 585 77 662 q 218 431 84 508 z "},"ઉ":{"ha":744,"x_min":27,"x_max":611,"o":"m 422 436 q 378 443 399 443 q 335 434 348 443 q 393 429 343 428 q 422 436 411 430 m 432 1060 q 147 865 236 1060 q 82 500 82 722 q 147 201 82 326 q 388 46 229 46 q 506 97 458 46 q 555 220 555 149 q 533 319 555 268 q 477 403 511 371 q 396 374 428 374 q 333 385 362 374 q 294 428 294 400 q 321 478 294 458 q 378 499 347 499 q 481 467 434 499 q 554 583 554 520 q 514 696 554 654 q 403 739 474 739 q 289 700 341 739 q 282 697 286 697 q 262 711 271 697 q 253 735 253 724 q 258 747 253 743 q 403 794 321 794 q 555 738 500 794 q 610 583 610 681 q 521 434 610 505 q 585 333 559 394 q 611 220 611 272 q 545 59 611 128 q 388 -10 479 -10 q 106 162 205 -10 q 27 500 27 304 q 111 912 27 750 q 432 1116 217 1116 q 449 1085 449 1116 q 432 1060 449 1060 z "},"ઊ":{"ha":1067,"x_min":27,"x_max":1048,"o":"m 422 436 q 378 443 399 443 q 335 434 348 443 q 393 429 343 428 q 422 436 411 430 m 481 467 q 554 583 554 520 q 514 696 554 654 q 403 739 474 739 q 289 700 373 739 q 265 708 276 694 q 253 735 253 721 q 258 747 253 742 q 403 794 315 794 q 555 738 500 794 q 610 583 610 681 q 521 434 610 505 q 585 333 559 394 q 611 220 611 272 q 545 59 611 128 q 388 -10 479 -10 q 106 162 205 -10 q 27 500 27 304 q 111 912 27 750 q 432 1116 217 1116 q 722 1026 621 1116 q 832 746 831 932 l 836 129 q 924 41 836 36 q 970 65 953 43 q 1001 120 985 93 l 1048 89 q 996 15 1002 21 q 927 -13 970 -12 q 819 22 858 -16 q 781 129 781 59 l 776 746 q 681 984 775 905 q 432 1060 593 1060 q 147 865 236 1060 q 82 500 82 722 q 147 201 82 326 q 388 46 229 46 q 506 97 458 46 q 555 220 555 149 q 533 319 555 268 q 477 403 511 371 q 396 374 428 374 q 333 385 362 374 q 294 428 294 400 q 321 478 294 458 q 378 499 347 499 q 481 467 434 499 z "},"ઋ":{"ha":1067,"x_min":38,"x_max":938,"o":"m 461 369 q 345 459 411 419 q 205 509 262 511 q 130 490 164 508 q 69 446 114 482 q 63 444 67 444 q 46 458 54 444 q 38 482 38 472 q 43 493 38 490 q 112 539 67 507 q 205 565 158 564 q 360 512 270 567 q 478 419 428 471 l 478 318 q 159 68 358 230 q 154 65 156 65 q 137 80 145 65 q 129 105 129 94 q 132 115 129 111 q 461 369 180 166 m 714 424 q 820 555 820 482 q 797 600 820 583 q 744 618 774 618 q 681 587 706 618 q 657 516 657 555 q 714 424 657 477 m 850 279 l 913 296 q 938 215 938 260 q 933 172 938 195 q 879 81 920 115 q 781 46 838 46 q 738 52 762 46 q 726 74 725 55 q 739 101 727 94 q 834 114 810 99 q 882 182 870 135 q 869 274 895 234 q 714 368 808 300 q 518 319 615 319 l 518 372 q 670 404 580 368 q 605 516 605 465 q 645 624 605 577 q 744 670 684 670 q 834 638 796 670 q 872 555 872 606 q 757 390 872 462 q 831 341 815 349 q 887 327 859 325 q 905 312 898 328 q 913 285 913 296 q 905 276 913 272 q 879 282 895 282 q 850 279 865 282 m 670 112 q 637 30 666 61 q 569 -1 609 -1 q 471 117 471 -1 l 471 756 q 499 772 471 772 q 527 756 527 772 l 527 117 q 562 49 527 49 q 576 50 569 49 q 612 99 602 55 q 634 140 621 140 l 634 140 q 662 132 646 140 q 670 112 671 127 z "},"ઌ":{"ha":967,"x_min":18,"x_max":924,"o":"m 376 435 q 369 390 369 411 q 379 347 369 361 q 384 406 385 358 q 376 435 383 423 m 766 400 q 715 519 766 470 q 593 568 664 568 q 493 546 545 568 q 410 489 442 524 q 439 409 439 440 q 428 345 439 374 q 385 307 412 307 q 334 335 355 307 q 314 390 314 360 q 346 493 314 446 q 229 567 294 567 q 116 527 158 567 q 74 415 74 486 q 130 263 74 388 q 207 117 184 145 q 210 109 210 114 q 196 90 210 100 q 173 81 182 81 q 160 86 164 81 q 77 246 130 124 q 18 415 18 377 q 75 567 18 512 q 229 623 131 623 q 379 533 308 623 q 479 598 418 572 q 593 623 540 623 q 753 557 685 623 q 822 400 822 491 l 766 400 m 647 618 l 647 850 q 675 867 647 867 q 703 850 703 867 l 703 592 l 647 618 m 924 105 q 721 1 852 1 q 567 44 625 1 q 502 185 502 92 q 565 291 502 244 q 660 347 581 302 q 791 421 758 404 q 812 411 803 427 q 819 385 819 397 q 811 368 819 373 l 764 341 q 607 256 656 281 q 557 185 557 230 q 721 57 557 57 q 811 87 771 57 q 884 143 830 102 q 893 146 888 146 l 893 146 q 920 131 907 146 q 924 105 932 117 z "},"ઍ":{"ha":1144,"x_min":37,"x_max":1053,"o":"m 1053 84 q 932 -19 991 -19 q 825 16 865 -19 q 785 117 785 51 l 785 756 q 812 772 785 772 q 840 756 840 772 l 840 117 q 932 36 840 36 q 1001 106 957 36 q 1017 112 1007 112 l 1017 112 q 1044 106 1029 112 q 1053 84 1060 96 m 419 1139 l 419 1139 q 441 1154 419 1151 q 474 1141 465 1157 q 574 957 564 971 q 711 861 639 861 q 787 881 742 861 q 811 872 801 886 q 821 844 821 858 q 812 831 821 834 l 774 811 q 711 806 756 806 q 549 924 633 806 q 477 1038 534 944 q 419 1139 419 1133 m 154 365 q 112 388 139 388 q 97 379 102 388 q 99 366 93 372 q 154 365 115 349 m 567 474 q 564 500 568 482 q 552 514 559 518 q 546 505 546 511 q 567 474 546 484 m 788 418 q 719 379 769 401 q 691 376 707 376 q 615 385 660 376 q 546 248 599 317 q 393 173 487 174 q 204 273 302 171 q 179 317 192 286 q 117 306 143 306 q 40 378 40 306 q 111 443 40 440 q 196 382 154 445 q 335 565 335 446 q 306 653 335 608 q 204 706 270 706 q 121 681 175 706 l 67 655 q 46 670 56 655 q 37 693 37 681 q 41 701 37 700 q 204 762 142 762 q 347 694 298 762 q 390 565 390 636 q 226 335 390 422 q 246 311 231 327 q 393 227 324 226 q 515 297 472 229 q 562 411 553 357 q 511 456 543 424 q 496 509 496 481 q 552 570 496 563 q 629 482 618 576 q 627 459 629 474 q 625 436 625 444 q 708 435 664 428 q 750 454 725 437 q 788 480 784 477 l 788 418 z "},"એ":{"ha":1144,"x_min":37,"x_max":1053,"o":"m 1053 84 q 932 -19 991 -19 q 825 16 865 -19 q 785 117 785 51 l 785 756 q 812 772 785 772 q 840 756 840 772 l 840 117 q 932 36 840 36 q 1001 106 957 36 q 1017 112 1007 112 l 1017 112 q 1044 106 1029 112 q 1053 84 1060 96 m 800 821 l 800 821 q 778 806 800 809 q 746 818 754 803 q 646 1002 655 989 q 508 1098 580 1098 q 432 1079 478 1098 q 408 1089 419 1073 q 399 1116 399 1101 q 407 1129 399 1125 l 446 1148 q 508 1154 464 1154 q 670 1036 586 1154 q 741 924 687 1015 q 800 821 800 828 m 154 365 q 112 388 139 388 q 97 379 102 388 q 99 366 93 372 q 154 365 115 349 m 567 474 q 564 500 568 482 q 552 514 559 518 q 546 505 546 511 q 567 474 546 484 m 788 418 q 719 379 769 401 q 691 376 707 376 q 615 385 660 376 q 546 248 599 317 q 393 173 487 174 q 204 273 302 171 q 179 317 192 286 q 117 306 143 306 q 40 378 40 306 q 111 443 40 440 q 196 382 154 445 q 335 565 335 446 q 306 653 335 608 q 204 706 270 706 q 121 681 175 706 l 67 655 q 46 670 56 655 q 37 693 37 681 q 41 701 37 700 q 204 762 142 762 q 347 694 298 762 q 390 565 390 636 q 226 335 390 422 q 246 311 231 327 q 393 227 324 226 q 515 297 472 229 q 562 411 553 357 q 511 456 543 424 q 496 509 496 481 q 552 570 496 563 q 629 482 618 576 q 627 459 629 474 q 625 436 625 444 q 708 435 664 428 q 750 454 725 437 q 788 480 784 477 l 788 418 z "},"ઐ":{"ha":1144,"x_min":37,"x_max":1053,"o":"m 1053 84 q 932 -19 991 -19 q 825 16 865 -19 q 785 117 785 51 l 785 756 q 812 772 785 772 q 840 756 840 772 l 840 117 q 932 36 840 36 q 1001 106 957 36 q 1017 112 1007 112 l 1017 112 q 1044 106 1029 112 q 1053 84 1060 96 m 821 864 q 811 840 826 851 q 784 829 797 829 q 771 836 774 829 q 670 1046 713 982 q 517 1171 606 1143 q 452 1163 493 1178 q 429 1174 439 1160 q 418 1202 418 1188 q 427 1214 418 1211 q 548 1216 498 1233 q 821 864 693 1170 m 726 832 q 731 819 731 829 l 731 819 q 718 790 731 805 q 693 787 706 776 q 540 924 571 902 q 385 985 458 985 q 308 965 354 985 q 285 974 295 960 q 275 1001 275 988 q 283 1015 275 1011 l 322 1035 q 385 1041 341 1041 q 557 974 462 1041 q 726 832 598 945 m 154 365 q 112 388 139 388 q 97 379 102 388 q 99 366 93 372 q 154 365 115 349 m 567 474 q 564 500 568 482 q 552 514 559 518 q 546 505 546 511 q 567 474 546 484 m 788 418 q 719 379 769 401 q 691 376 707 376 q 615 385 660 376 q 546 248 599 317 q 393 173 487 174 q 204 273 302 171 q 179 317 192 286 q 117 306 143 306 q 40 378 40 306 q 111 443 40 440 q 196 382 154 445 q 335 565 335 446 q 306 653 335 608 q 204 706 270 706 q 121 681 175 706 l 67 655 q 46 670 56 655 q 37 693 37 681 q 41 701 37 700 q 204 762 142 762 q 347 694 298 762 q 390 565 390 636 q 226 335 390 422 q 246 311 231 327 q 393 227 324 226 q 515 297 472 229 q 562 411 553 357 q 511 456 543 424 q 496 509 496 481 q 552 570 496 563 q 629 482 618 576 q 627 459 629 474 q 625 436 625 444 q 708 435 664 428 q 750 454 725 437 q 788 480 784 477 l 788 418 z "},"ઑ":{"ha":1489,"x_min":37,"x_max":1371,"o":"m 1053 84 q 932 -19 991 -19 q 825 16 865 -19 q 785 117 785 51 l 785 756 q 812 772 785 772 q 840 756 840 772 l 840 117 q 932 36 840 36 q 1001 106 957 36 q 1017 112 1007 112 l 1017 112 q 1044 106 1029 112 q 1053 84 1060 96 m 1371 84 q 1250 -19 1309 -19 q 1143 16 1184 -19 q 1103 117 1103 51 l 1103 756 q 1131 772 1103 772 q 1159 756 1159 772 l 1159 117 q 1250 36 1159 36 q 1320 106 1275 36 q 1335 112 1326 112 l 1335 112 q 1361 106 1348 112 q 1371 84 1377 96 m 781 1166 l 781 1166 q 803 1182 781 1179 q 834 1169 827 1185 q 935 985 926 999 q 1072 889 1000 889 q 1148 908 1103 889 q 1172 900 1162 914 q 1182 872 1182 886 q 1174 858 1182 862 l 1135 839 q 1072 834 1116 834 q 909 952 995 834 q 838 1066 896 972 q 781 1166 781 1161 m 154 365 q 112 388 139 388 q 97 379 102 388 q 99 366 93 372 q 154 365 115 349 m 567 474 q 564 500 568 482 q 552 514 559 518 q 546 505 546 511 q 567 474 546 484 m 788 418 q 719 379 769 401 q 691 376 707 376 q 615 385 660 376 q 546 248 599 317 q 393 173 487 174 q 204 273 302 171 q 179 317 192 286 q 117 306 143 306 q 40 378 40 306 q 111 443 40 440 q 196 382 154 445 q 335 565 335 446 q 306 653 335 608 q 204 706 270 706 q 121 681 175 706 l 67 655 q 46 670 56 655 q 37 693 37 681 q 41 701 37 700 q 204 762 142 762 q 347 694 298 762 q 390 565 390 636 q 226 335 390 422 q 246 311 231 327 q 393 227 324 226 q 515 297 472 229 q 562 411 553 357 q 511 456 543 424 q 496 509 496 481 q 552 570 496 563 q 629 482 618 576 q 627 459 629 474 q 625 436 625 444 q 708 435 664 428 q 750 454 725 437 q 788 480 784 477 l 788 418 z "},"ઓ":{"ha":1489,"x_min":37,"x_max":1371,"o":"m 1053 84 q 932 -19 991 -19 q 825 16 865 -19 q 785 117 785 51 l 785 756 q 812 772 785 772 q 840 756 840 772 l 840 117 q 932 36 840 36 q 1001 106 957 36 q 1017 112 1007 112 l 1017 112 q 1044 106 1029 112 q 1053 84 1060 96 m 1371 84 q 1250 -19 1309 -19 q 1143 16 1184 -19 q 1103 117 1103 51 l 1103 756 q 1131 772 1103 772 q 1159 756 1159 772 l 1159 117 q 1250 36 1159 36 q 1320 106 1275 36 q 1335 112 1326 112 l 1335 112 q 1361 106 1348 112 q 1371 84 1377 96 m 1134 821 l 1134 821 q 1111 806 1134 809 q 1079 818 1088 803 q 979 1002 989 989 q 841 1098 914 1098 q 765 1079 811 1098 q 741 1089 752 1073 q 732 1116 732 1101 q 740 1129 732 1125 l 779 1148 q 841 1154 797 1154 q 1004 1036 920 1154 q 1075 924 1020 1015 q 1134 821 1134 828 m 154 365 q 112 388 139 388 q 97 379 102 388 q 99 366 93 372 q 154 365 115 349 m 567 474 q 564 500 568 482 q 552 514 559 518 q 546 505 546 511 q 567 474 546 484 m 788 418 q 719 379 769 401 q 691 376 707 376 q 615 385 660 376 q 546 248 599 317 q 393 173 487 174 q 204 273 302 171 q 179 317 192 286 q 117 306 143 306 q 40 378 40 306 q 111 443 40 440 q 196 382 154 445 q 335 565 335 446 q 306 653 335 608 q 204 706 270 706 q 121 681 175 706 l 67 655 q 46 670 56 655 q 37 693 37 681 q 41 701 37 700 q 204 762 142 762 q 347 694 298 762 q 390 565 390 636 q 226 335 390 422 q 246 311 231 327 q 393 227 324 226 q 515 297 472 229 q 562 411 553 357 q 511 456 543 424 q 496 509 496 481 q 552 570 496 563 q 629 482 618 576 q 627 459 629 474 q 625 436 625 444 q 708 435 664 428 q 750 454 725 437 q 788 480 784 477 l 788 418 z "},"ઔ":{"ha":1489,"x_min":37,"x_max":1371,"o":"m 1053 84 q 932 -19 991 -19 q 825 16 865 -19 q 785 117 785 51 l 785 756 q 812 772 785 772 q 840 756 840 772 l 840 117 q 932 36 840 36 q 1001 106 957 36 q 1017 112 1007 112 l 1017 112 q 1044 106 1029 112 q 1053 84 1060 96 m 1371 84 q 1250 -19 1309 -19 q 1143 16 1184 -19 q 1103 117 1103 51 l 1103 756 q 1131 772 1103 772 q 1159 756 1159 772 l 1159 117 q 1250 36 1159 36 q 1320 106 1275 36 q 1335 112 1326 112 l 1335 112 q 1361 106 1348 112 q 1371 84 1377 96 m 1140 864 q 1131 840 1146 851 q 1103 829 1116 829 q 1091 836 1093 829 q 990 1046 1032 982 q 836 1171 926 1143 q 771 1163 812 1178 q 748 1174 759 1160 q 738 1202 738 1188 q 746 1214 738 1211 q 867 1216 817 1233 q 1140 864 1012 1170 m 1046 832 q 1050 819 1050 829 l 1050 819 q 1038 790 1050 805 q 1013 787 1025 776 q 859 924 890 902 q 704 985 777 985 q 627 965 673 985 q 605 974 615 960 q 595 1001 595 988 q 602 1015 595 1011 l 642 1035 q 704 1041 660 1041 q 877 974 782 1041 q 1046 832 917 945 m 154 365 q 112 388 139 388 q 97 379 102 388 q 99 366 93 372 q 154 365 115 349 m 567 474 q 564 500 568 482 q 552 514 559 518 q 546 505 546 511 q 567 474 546 484 m 788 418 q 719 379 769 401 q 691 376 707 376 q 615 385 660 376 q 546 248 599 317 q 393 173 487 174 q 204 273 302 171 q 179 317 192 286 q 117 306 143 306 q 40 378 40 306 q 111 443 40 440 q 196 382 154 445 q 335 565 335 446 q 306 653 335 608 q 204 706 270 706 q 121 681 175 706 l 67 655 q 46 670 56 655 q 37 693 37 681 q 41 701 37 700 q 204 762 142 762 q 347 694 298 762 q 390 565 390 636 q 226 335 390 422 q 246 311 231 327 q 393 227 324 226 q 515 297 472 229 q 562 411 553 357 q 511 456 543 424 q 496 509 496 481 q 552 570 496 563 q 629 482 618 576 q 627 459 629 474 q 625 436 625 444 q 708 435 664 428 q 750 454 725 437 q 788 480 784 477 l 788 418 z "},"ક":{"ha":668,"x_min":3,"x_max":549,"o":"m 390 400 q 482 314 457 350 q 517 195 517 264 q 444 46 517 106 q 285 -12 375 -12 q 142 12 200 -12 q 9 86 113 24 q 3 99 3 90 q 13 127 3 111 q 36 136 24 143 q 154 72 127 84 q 285 44 217 44 q 405 84 353 44 q 461 195 461 129 q 431 307 461 262 q 344 388 408 341 q 149 275 211 275 q 122 311 122 275 q 127 323 122 319 q 300 419 157 357 q 168 596 168 528 q 223 725 168 659 q 339 790 277 790 l 339 790 q 361 771 353 790 q 365 754 365 762 q 361 741 365 746 q 270 670 341 726 q 223 596 223 632 q 334 439 223 537 l 521 522 q 540 514 530 527 q 549 492 549 502 q 543 481 549 483 q 390 400 522 467 z "},"ખ":{"ha":1067,"x_min":-19,"x_max":961,"o":"m 475 497 q 478 508 475 501 q 481 518 481 515 q 465 558 481 560 q 444 542 444 558 q 475 497 444 514 m 694 507 l 694 449 q 598 422 623 422 q 521 429 552 422 q 447 281 502 340 q 300 215 386 215 q 175 252 225 215 q 120 366 120 294 l 120 711 q 65 753 120 756 q 24 728 35 751 q 15 722 21 722 q -8 736 4 722 q -19 762 -19 750 q -15 769 -19 766 q 21 794 13 790 q 62 809 45 808 q 175 711 175 815 l 175 366 q 215 293 175 318 q 300 270 249 270 q 414 327 366 270 q 468 447 454 376 q 388 542 388 481 q 411 591 388 570 q 462 614 435 613 q 514 582 495 616 q 530 520 530 553 q 529 482 530 494 q 595 472 548 472 q 646 486 616 472 q 694 507 686 505 m 961 84 q 840 -19 900 -19 q 734 16 774 -19 q 693 117 693 51 l 693 756 q 721 772 693 772 q 748 756 748 772 l 748 117 q 840 36 748 36 q 909 106 865 36 q 925 112 915 112 l 925 112 q 952 106 938 112 q 961 84 968 96 z "},"ગ":{"ha":967,"x_min":4,"x_max":859,"o":"m 439 508 q 395 334 439 405 q 246 248 342 248 q 93 323 156 248 q 4 475 57 367 q 14 495 -1 486 q 40 505 29 505 q 54 497 50 505 l 128 364 q 246 304 173 304 q 356 373 319 304 q 384 508 384 427 q 345 672 384 606 q 207 753 297 753 q 102 722 153 753 q 93 721 99 721 q 70 731 82 721 q 59 753 59 741 q 62 762 59 758 q 129 801 97 792 q 207 809 153 809 q 384 711 320 809 q 439 508 439 627 m 859 84 q 739 -19 798 -19 q 632 16 672 -19 q 592 117 592 51 l 592 756 q 620 772 592 772 q 647 756 647 772 l 647 117 q 739 36 647 36 q 809 106 764 36 q 824 112 814 112 l 824 112 q 850 106 836 112 q 859 84 866 96 z "},"ઘ":{"ha":867,"x_min":10,"x_max":721,"o":"m 86 446 q 35 518 58 474 q 10 601 8 568 q 41 684 12 648 q 115 719 69 719 l 279 719 q 294 693 294 719 q 279 664 294 667 q 115 664 252 659 q 65 599 69 666 q 134 471 62 544 q 255 494 208 499 q 275 461 275 493 q 261 439 275 439 q 87 336 87 436 q 134 237 87 280 q 238 195 180 195 q 381 239 303 195 q 458 282 447 277 q 465 284 462 284 q 486 271 476 284 q 496 247 496 258 q 489 235 496 239 q 374 170 409 185 q 238 139 303 139 q 93 197 154 139 q 32 336 32 254 q 86 446 32 406 m 721 84 q 600 -19 659 -19 q 493 16 533 -19 q 453 117 453 51 l 453 756 q 481 772 453 772 q 508 756 508 772 l 508 117 q 600 36 508 36 q 670 106 625 36 q 685 112 675 112 l 685 112 q 711 106 697 112 q 721 84 728 96 z "},"ઙ":{"ha":668,"x_min":1,"x_max":605,"o":"m 558 175 q 515 65 558 112 q 409 18 471 18 q 1 397 175 18 q 11 420 -4 409 q 37 432 25 432 q 49 425 45 432 q 190 173 130 242 q 409 72 275 72 q 475 104 447 72 q 503 175 503 135 q 444 339 503 264 q 338 440 417 374 q 279 520 279 488 q 294 554 279 536 q 431 734 381 670 q 441 738 435 738 l 441 738 q 470 725 456 738 q 475 700 485 712 q 341 527 420 636 q 335 507 335 517 q 393 437 335 484 q 500 338 470 376 q 558 175 558 264 m 605 539 q 586 492 605 512 q 539 471 566 471 q 492 492 512 471 q 471 539 471 512 q 492 586 471 566 q 539 605 512 605 q 586 586 566 605 q 605 539 605 566 z "},"ચ":{"ha":900,"x_min":-3,"x_max":803,"o":"m 109 391 q 69 425 94 425 q 53 411 53 425 q 92 390 53 390 q 109 391 105 390 m 162 409 q 263 491 217 435 q 314 608 314 554 q 155 746 314 746 q 86 731 115 746 q 35 703 74 724 q 10 710 22 695 q -3 739 -3 725 q 4 750 -3 747 l 75 787 q 155 801 102 801 q 369 608 369 801 q 306 465 369 546 q 186 360 248 393 q 260 283 214 317 q 356 245 312 245 q 453 282 406 245 q 525 344 475 300 q 533 347 529 347 l 533 347 q 561 331 547 347 q 564 306 575 316 q 469 221 500 240 q 356 189 419 189 q 229 239 297 189 q 134 341 167 284 q 92 335 114 335 q 29 356 58 335 q -3 411 -3 378 q 19 460 -3 440 q 69 481 40 481 q 162 409 125 481 m 803 84 q 682 -19 741 -19 q 576 15 615 -19 q 534 117 534 51 l 534 756 q 562 772 534 772 q 590 756 590 772 l 590 117 q 682 36 590 36 q 751 106 707 36 q 766 112 757 112 l 766 112 q 793 106 780 112 q 803 84 810 96 z "},"છ":{"ha":867,"x_min":-3,"x_max":751,"o":"m 655 325 q 695 492 695 450 q 669 629 695 573 q 560 703 633 703 q 471 664 503 703 q 439 567 439 625 q 499 398 439 467 q 655 325 559 329 m 105 400 q -3 576 -3 494 q 52 707 -3 648 q 174 784 100 760 q 196 775 186 787 q 205 748 205 762 q 199 734 205 738 q 105 670 122 686 q 53 576 53 626 q 153 435 53 518 q 270 477 202 482 q 292 441 292 475 q 279 421 292 423 q 146 365 200 406 q 77 245 78 316 q 155 109 75 160 q 316 67 207 78 q 494 123 393 59 q 635 270 596 188 q 451 366 521 281 q 384 567 384 449 q 429 703 384 650 q 560 759 478 759 q 709 669 656 759 q 751 492 751 595 q 621 152 751 300 q 320 3 491 3 q 117 69 214 3 q 21 245 21 135 q 105 400 21 334 z "},"જ":{"ha":900,"x_min":-1,"x_max":811,"o":"m 502 457 q 338 174 341 268 q 348 81 335 108 q 454 36 372 33 q 559 84 517 38 q 600 193 600 129 q 502 457 600 294 m 257 717 q 168 743 208 743 q 85 699 117 743 q 54 607 57 661 q 78 509 52 552 q 160 461 107 461 q 266 625 270 461 q 257 717 265 649 m 469 505 q 318 675 396 611 q 320 626 320 659 q 288 477 322 534 q 160 406 246 406 q 36 471 82 406 q -1 610 -4 530 q 45 740 1 687 q 168 799 93 799 q 503 543 318 799 q 636 682 565 613 q 775 803 646 691 q 782 806 778 806 l 782 806 q 810 788 796 806 q 811 762 823 770 q 534 496 674 655 q 655 193 655 313 q 600 44 655 104 q 457 -19 546 -16 q 300 43 336 -23 q 282 176 279 82 q 469 505 286 284 z "},"ઝ":{"ha":967,"x_min":0,"x_max":769,"o":"m 605 524 q 731 451 687 514 q 769 308 771 392 q 593 15 766 127 q 586 13 590 13 q 564 24 575 13 q 552 47 552 35 q 557 57 552 54 q 670 160 637 116 q 714 308 713 218 q 680 421 716 377 q 575 469 643 469 q 452 421 520 469 q 456 368 454 398 q 407 139 462 245 q 223 16 342 16 q 0 283 69 16 q 25 301 -5 301 q 56 286 51 301 q 111 139 85 181 q 223 72 152 72 q 368 176 321 72 q 400 365 404 257 q 350 548 396 470 q 198 642 294 642 q 80 588 162 642 q 73 586 76 586 q 54 599 62 586 q 46 623 46 611 q 52 635 46 630 q 112 678 98 670 q 198 697 151 697 q 355 631 289 697 q 439 480 412 574 q 558 524 507 517 l 558 756 q 576 765 558 765 q 605 750 605 765 l 605 524 z "},"ઞ":{"ha":967,"x_min":-10,"x_max":858,"o":"m 599 459 q 481 437 561 444 q 425 453 454 439 q 381 279 427 353 q 232 193 327 193 q 80 268 143 193 q -10 419 42 312 q 1 440 -15 431 q 27 449 14 449 q 40 441 36 449 l 114 308 q 232 248 158 248 q 341 317 306 248 q 369 453 369 371 q 331 617 369 551 q 193 697 284 697 q 87 667 139 697 q 80 666 85 666 q 56 676 68 666 q 44 697 44 686 q 49 706 44 702 q 115 746 83 737 q 193 753 139 753 q 356 674 294 753 q 422 500 409 606 q 502 487 458 484 q 599 509 553 491 l 599 459 m 858 84 q 738 -19 797 -19 q 630 16 670 -19 q 590 117 590 51 l 590 756 q 618 772 590 772 q 646 756 646 772 l 646 117 q 738 36 646 36 q 807 106 763 36 q 822 112 812 112 l 822 112 q 849 106 835 112 q 858 84 865 96 z "},"ટ":{"ha":668,"x_min":1,"x_max":478,"o":"m 477 118 q 388 65 447 94 q 223 16 289 16 q 69 74 134 16 q 1 220 1 132 q 59 361 1 295 q 182 461 91 398 l 301 543 q 360 647 360 595 q 320 720 360 694 q 236 743 286 743 q 141 719 203 743 q 89 695 78 695 q 69 710 78 695 q 61 734 61 721 q 67 744 61 740 q 236 799 148 799 q 360 761 309 799 q 415 647 415 718 q 351 518 415 580 q 213 414 317 484 q 106 334 132 360 q 57 220 57 281 q 108 112 57 155 q 223 72 156 72 q 366 117 280 72 q 446 165 430 149 q 453 168 449 168 l 453 168 q 478 149 467 168 q 477 118 489 129 z "},"ઠ":{"ha":668,"x_min":3,"x_max":530,"o":"m 317 443 q 59 223 61 359 q 113 102 57 150 q 241 57 167 55 q 407 126 338 59 q 475 289 477 193 q 317 443 474 376 m 263 478 q 145 641 148 561 q 232 765 142 708 q 350 811 309 813 q 374 774 374 810 q 364 759 374 761 q 200 643 196 725 q 341 493 203 579 q 456 421 447 428 q 530 289 529 361 q 446 87 532 170 q 241 1 360 4 q 72 62 143 -1 q 3 223 1 126 q 263 478 6 396 z "},"ડ":{"ha":668,"x_min":1,"x_max":558,"o":"m 500 338 q 558 175 558 264 q 515 65 558 112 q 409 18 471 18 q 1 397 175 18 q 11 420 -4 409 q 37 432 25 432 q 49 425 45 432 q 204 173 115 276 q 409 72 290 72 q 475 104 447 72 q 503 175 503 135 q 458 320 503 265 q 346 419 442 340 q 214 596 214 529 q 269 711 214 645 q 385 790 335 790 l 385 790 q 407 771 399 790 q 411 754 411 762 q 407 741 411 746 q 317 670 388 726 q 278 596 278 639 q 406 439 278 549 q 500 338 450 400 z "},"ઢ":{"ha":668,"x_min":0,"x_max":525,"o":"m 382 102 q 469 233 469 149 q 445 305 469 273 q 382 336 421 336 q 310 306 339 336 q 276 233 281 277 q 311 162 272 194 q 382 102 377 109 m 326 82 q 253 153 291 118 q 221 239 216 194 q 272 348 227 304 q 382 391 317 391 q 484 344 444 391 q 525 233 525 296 q 439 72 525 132 q 257 19 361 16 q 70 97 146 22 q 0 282 -6 172 q 100 452 5 378 q 275 557 124 470 q 372 658 369 611 q 275 753 379 753 q 196 731 235 753 q 185 728 191 728 q 159 736 174 728 q 145 754 145 744 q 149 762 145 759 l 204 796 q 275 809 232 809 q 428 658 431 809 q 332 530 427 583 q 157 437 285 505 q 56 279 59 372 q 114 135 52 194 q 260 75 173 79 q 326 82 294 74 z "},"ણ":{"ha":967,"x_min":0,"x_max":878,"o":"m 472 506 q 430 370 469 426 q 307 304 385 307 q 128 435 198 300 q 139 456 123 446 q 164 464 153 464 q 177 458 174 464 q 230 377 225 383 q 304 354 257 351 q 416 509 409 359 q 384 623 420 567 q 280 687 342 687 q 229 670 263 687 q 188 654 195 654 q 167 664 176 654 q 157 685 157 673 q 161 694 157 691 q 280 737 204 737 q 421 662 364 737 q 472 506 475 592 m 443 56 q 398 -23 443 7 q 304 -46 353 -54 q 115 29 193 -29 q 109 40 109 34 l 109 40 q 122 68 109 55 q 149 74 135 82 q 313 10 235 19 q 363 19 339 7 q 388 56 388 31 q 247 195 388 131 q 0 298 224 204 l 0 754 q 28 771 0 771 q 56 754 56 771 l 56 335 q 304 215 242 253 q 443 56 443 132 m 878 84 q 757 -19 816 -19 q 650 16 691 -19 q 610 117 610 51 l 610 756 q 638 772 610 772 q 666 756 666 772 l 666 117 q 757 36 666 36 q 827 106 782 36 q 841 112 832 112 l 841 112 q 868 106 855 112 q 878 84 884 96 z "},"ત":{"ha":867,"x_min":0,"x_max":719,"o":"m 456 528 q 161 528 443 530 q 84 495 112 528 q 56 414 56 463 q 154 154 56 294 q 270 21 204 83 q 275 12 275 17 l 275 12 q 259 -18 275 -3 q 232 -21 243 -33 q 164 54 218 -6 q 51 222 95 130 q 0 414 0 325 q 45 535 0 486 q 161 583 89 583 l 456 583 q 472 552 472 583 q 456 528 472 525 m 719 84 q 599 -19 658 -19 q 492 16 532 -19 q 452 117 452 51 l 452 756 q 480 772 452 772 q 507 756 507 772 l 507 117 q 599 36 507 36 q 668 106 623 36 q 683 112 673 112 l 683 112 q 710 106 696 112 q 719 84 726 96 z "},"થ":{"ha":867,"x_min":19,"x_max":719,"o":"m 208 539 q 251 650 251 585 q 225 730 251 696 q 152 762 196 767 q 75 670 80 752 q 122 586 72 623 q 208 539 138 575 m 164 503 q 19 673 17 587 q 61 776 21 735 q 161 818 101 818 q 266 764 222 818 q 307 650 307 713 q 109 388 307 509 q 267 263 162 263 q 364 285 320 263 q 449 341 387 295 q 456 343 452 343 l 456 343 q 482 325 469 343 q 484 298 495 307 q 267 207 373 207 q 122 270 183 207 q 46 415 67 327 q 164 503 94 435 m 719 84 q 599 -19 658 -19 q 492 16 532 -19 q 452 117 452 51 l 452 756 q 480 772 452 772 q 507 756 507 772 l 507 117 q 599 36 507 36 q 668 106 623 36 q 683 112 673 112 l 683 112 q 710 106 696 112 q 719 84 726 96 z "},"દ":{"ha":668,"x_min":2,"x_max":472,"o":"m 82 430 q 28 516 52 464 q 2 613 0 575 q 35 711 5 673 q 168 772 85 772 q 285 751 212 772 q 301 719 301 746 q 277 689 301 689 q 263 692 270 689 q 176 706 223 706 q 60 610 65 706 q 133 459 58 545 q 260 487 210 492 q 281 448 281 485 q 266 422 281 422 q 83 301 83 419 q 127 176 83 230 q 242 118 173 118 q 344 144 299 118 q 433 197 388 170 q 460 186 446 203 q 472 155 472 170 q 465 141 472 146 q 358 77 396 93 q 242 53 306 55 q 89 124 152 51 q 26 301 26 197 q 82 430 26 383 z "},"ધ":{"ha":867,"x_min":27,"x_max":744,"o":"m 96 492 q 27 651 27 574 q 164 881 27 780 q 223 918 213 918 l 223 918 q 245 899 235 918 q 245 869 254 878 q 82 651 82 762 q 145 518 82 584 q 294 548 167 527 q 314 517 314 551 q 300 492 314 494 q 171 472 268 487 q 99 388 99 452 q 141 277 99 325 q 246 229 182 229 q 411 276 304 229 q 503 322 503 317 q 500 323 503 323 l 500 323 q 512 292 514 323 q 494 251 511 260 q 246 174 341 174 q 100 236 157 174 q 43 388 43 299 q 96 492 43 456 m 744 84 q 623 -19 683 -19 q 517 16 557 -19 q 477 117 477 51 l 477 756 q 505 772 477 772 q 532 756 532 772 l 532 117 q 623 36 532 36 q 693 106 648 36 q 708 112 698 112 l 708 112 q 735 106 721 112 q 744 84 751 96 z "},"ન":{"ha":867,"x_min":15,"x_max":668,"o":"m 668 106 q 548 1 606 1 q 440 36 481 1 q 400 137 400 72 l 400 756 q 428 772 400 772 q 456 756 456 772 l 456 137 q 548 57 456 57 q 617 128 573 57 q 632 133 623 133 l 632 133 q 658 126 645 133 q 668 106 675 117 m 122 472 l 83 472 q 61 446 61 472 q 92 403 61 403 q 122 435 122 403 l 122 472 m 168 472 l 168 435 q 94 357 168 357 q 15 449 15 357 q 83 528 15 528 l 419 528 l 419 472 l 168 472 z "},"પ":{"ha":867,"x_min":-12,"x_max":734,"o":"m 492 319 q 339 255 419 255 q 196 295 256 255 q 127 419 127 341 l 127 714 q 72 747 127 747 q 47 738 65 747 q 22 729 30 729 q -1 739 11 729 q -12 760 -12 748 q -9 769 -12 765 q 72 803 26 803 q 147 781 116 803 q 182 714 182 756 l 182 419 q 236 335 182 364 q 341 311 279 311 q 458 364 410 311 q 465 366 461 366 l 465 366 q 490 347 478 366 q 492 319 502 328 m 734 84 q 613 -19 671 -19 q 505 16 546 -19 q 465 117 465 51 l 465 756 q 493 772 465 772 q 521 756 521 772 l 521 117 q 613 36 521 36 q 682 106 638 36 q 697 112 688 112 l 697 112 q 723 106 710 112 q 734 84 740 96 z "},"ફ":{"ha":668,"x_min":-4,"x_max":565,"o":"m 124 168 q 64 215 82 215 q 57 202 57 215 q 124 168 57 171 m 278 478 q 27 415 254 465 q 5 426 13 412 q -4 453 -4 439 q 4 465 -4 463 q 214 514 64 477 q 65 670 65 596 q 155 777 65 738 q 304 809 227 809 q 330 804 326 809 q 335 782 335 799 q 279 751 335 758 q 121 670 121 733 q 179 582 121 623 q 280 529 179 582 q 390 550 306 530 q 536 580 500 576 q 556 569 548 582 q 565 543 565 555 q 555 530 565 530 q 341 489 514 530 q 475 291 475 368 q 241 117 475 133 q 322 39 281 78 q 387 -40 387 -23 l 387 -40 q 376 -65 387 -59 q 347 -65 356 -77 q 268 23 326 -36 q 177 120 203 87 q 1 202 1 139 q 64 273 1 273 q 196 170 128 273 q 334 192 270 168 q 419 291 419 223 q 278 478 419 376 z "},"બ":{"ha":967,"x_min":1,"x_max":858,"o":"m 375 394 q 376 402 375 397 q 378 409 378 407 q 364 456 378 456 q 350 428 350 456 q 375 394 350 410 m 366 339 q 294 428 294 378 q 313 486 294 461 q 364 511 332 511 q 415 474 396 511 q 431 409 431 444 q 429 376 431 388 q 502 375 462 369 q 588 401 553 382 q 609 395 600 409 q 618 366 618 381 q 613 351 618 357 q 509 319 588 329 q 418 320 464 314 q 350 200 397 247 q 223 147 296 147 q 59 241 123 147 q 1 428 1 322 q 215 716 1 596 q 223 717 218 717 l 223 717 q 247 697 237 717 q 246 668 259 676 q 119 571 154 608 q 57 428 57 505 q 97 279 57 343 q 223 202 145 202 q 366 339 331 202 m 858 84 q 738 -19 797 -19 q 630 16 670 -19 q 590 117 590 51 l 590 756 q 618 772 590 772 q 646 756 646 772 l 646 117 q 738 36 646 36 q 807 106 763 36 q 822 112 812 112 l 822 112 q 849 106 835 112 q 858 84 865 96 z "},"ભ":{"ha":1067,"x_min":-3,"x_max":986,"o":"m 419 407 l 391 407 q 375 403 375 407 q 388 389 375 399 q 403 378 402 380 q 416 360 414 362 q 419 366 419 361 l 419 407 m 419 462 l 419 647 q 374 724 419 696 q 283 747 335 747 q 122 678 191 747 q 53 517 53 609 q 118 319 53 411 q 263 162 152 271 q 267 150 267 158 l 267 150 q 255 121 267 137 q 232 115 244 106 q -3 517 -3 309 q 83 717 -3 630 q 283 803 170 803 q 412 763 357 803 q 475 647 475 718 l 475 462 l 719 462 q 736 435 736 462 q 719 407 736 407 l 475 407 l 475 366 q 436 295 475 295 q 325 384 394 295 q 304 428 304 410 q 391 462 304 462 l 419 462 m 986 84 q 865 -19 925 -19 q 759 16 799 -19 q 718 117 718 51 l 718 756 q 746 772 718 772 q 774 756 774 772 l 774 117 q 865 36 774 36 q 935 106 890 36 q 950 112 940 112 l 950 112 q 976 106 963 112 q 986 84 993 96 z "},"મ":{"ha":867,"x_min":-4,"x_max":747,"o":"m 486 391 l 136 391 q 122 388 122 391 q 142 366 127 384 q 162 335 152 351 q 165 344 165 336 l 167 681 q 164 728 167 715 q 133 753 158 753 q 37 697 86 753 q 31 695 35 695 q 8 708 19 695 q -4 732 -4 720 q 1 741 -4 739 q 133 809 71 809 q 193 796 179 809 q 221 681 221 771 l 221 344 q 185 270 221 270 q 100 331 151 270 q 59 404 59 378 q 136 440 59 440 l 486 441 q 503 416 503 442 q 486 391 503 391 m 747 84 q 626 -19 686 -19 q 520 16 560 -19 q 480 117 480 51 l 480 756 q 507 772 480 772 q 534 756 534 772 l 534 117 q 626 36 534 36 q 695 106 651 36 q 711 112 701 112 l 711 112 q 738 106 724 112 q 747 84 754 96 z "},"ય":{"ha":867,"x_min":28,"x_max":704,"o":"m 462 341 q 366 284 389 294 q 255 264 320 264 q 96 332 163 264 q 29 502 29 400 q 129 576 91 527 q 168 678 168 624 q 144 730 168 709 q 90 751 121 751 q 68 745 82 751 q 49 739 54 739 q 28 776 28 739 q 71 797 28 797 q 174 767 129 797 q 223 678 223 733 q 181 554 223 620 q 87 468 139 489 q 151 359 99 405 q 255 319 203 314 q 432 388 344 330 q 439 390 435 390 l 439 390 q 464 369 455 390 q 462 341 474 347 m 704 84 q 583 -19 643 -19 q 477 16 517 -19 q 436 117 436 51 l 436 756 q 464 772 436 772 q 492 756 492 772 l 492 117 q 583 36 492 36 q 653 106 608 36 q 668 112 658 112 l 668 112 q 694 106 681 112 q 704 84 711 96 z "},"ર":{"ha":668,"x_min":59,"x_max":576,"o":"m 189 318 q 146 365 173 359 q 122 362 134 368 q 109 344 110 356 q 189 318 107 318 m 78 772 q 186 794 132 794 q 376 721 301 794 q 452 529 452 648 q 399 363 452 434 q 253 270 345 292 q 275 205 262 240 q 415 46 336 46 q 546 80 488 46 q 552 81 549 81 l 552 81 q 576 64 567 81 q 576 39 586 47 q 415 -7 520 -7 q 297 62 356 -7 q 225 186 252 115 q 204 263 216 211 q 128 270 170 263 q 59 344 57 285 q 84 396 61 378 q 142 411 107 413 q 233 323 200 407 q 352 394 309 338 q 396 529 396 451 q 336 681 396 623 q 186 739 276 739 q 112 722 157 739 q 101 720 106 720 q 69 755 69 720 q 78 772 69 768 z "},"લ":{"ha":867,"x_min":-3,"x_max":764,"o":"m 503 456 q 387 422 442 435 q 236 388 274 395 l 217 447 q 347 464 285 447 l 368 469 q 503 503 403 478 l 503 456 m 349 118 q 342 118 349 118 q 320 117 335 117 q 96 209 195 117 q -3 425 -3 300 q 118 654 -3 554 q 325 762 210 731 q 346 734 346 766 q 334 706 346 712 q 213 643 294 687 q 53 425 53 558 q 147 243 53 320 q 343 174 237 168 q 363 142 363 175 q 349 118 363 120 m 764 84 q 643 -19 702 -19 q 536 16 576 -19 q 496 117 496 51 l 496 756 q 524 772 496 772 q 552 756 552 772 l 552 117 q 643 36 552 36 q 713 106 668 36 q 728 112 718 112 l 728 112 q 754 106 740 112 q 764 84 771 96 z "},"ળ":{"ha":967,"x_min":0,"x_max":816,"o":"m 475 772 q 356 548 356 772 q 343 334 356 383 q 208 225 316 223 q 52 309 110 226 q 0 483 0 382 q 40 660 0 582 q 132 787 62 703 q 142 791 134 791 l 142 791 q 169 776 155 791 q 174 748 182 761 q 87 629 100 652 q 56 483 56 569 q 93 348 56 407 q 208 280 135 282 q 306 414 306 278 q 303 481 306 436 q 300 548 300 525 q 475 828 300 828 q 582 776 548 828 q 604 693 609 737 l 550 693 q 542 737 546 728 q 475 772 526 772 m 816 99 q 695 -6 755 -6 q 589 30 629 -6 q 549 130 549 65 l 549 714 q 576 731 549 731 q 604 714 604 731 l 604 130 q 695 50 604 50 q 765 121 721 50 q 781 127 771 127 l 781 127 q 807 119 793 127 q 816 99 824 110 z "},"વ":{"ha":867,"x_min":4,"x_max":701,"o":"m 449 253 q 261 193 356 193 q 84 257 163 193 q 4 431 1 325 q 70 597 7 528 q 227 670 135 670 q 332 647 311 670 q 338 631 338 642 l 338 631 q 330 605 338 618 q 307 598 319 590 q 227 614 280 614 q 108 556 157 614 q 59 428 62 503 q 125 295 57 347 q 264 248 188 248 q 364 270 315 248 q 439 312 399 291 q 458 279 458 317 q 449 253 458 259 m 701 84 q 645 7 668 28 q 580 -19 617 -19 q 474 16 514 -19 q 434 117 434 51 l 434 756 q 461 772 434 772 q 489 756 489 772 l 489 117 q 580 36 489 32 q 650 106 606 37 q 666 112 655 112 l 666 112 q 692 106 678 112 q 701 84 708 96 z "},"શ":{"ha":967,"x_min":-3,"x_max":858,"o":"m 341 546 q 314 685 341 643 q 171 744 276 744 q 108 697 129 744 q 96 614 91 659 q 270 527 104 527 q 336 532 311 527 q 341 546 341 537 m 175 292 q 272 369 228 318 q 331 474 317 419 q 161 494 247 468 q 40 608 48 529 q 66 735 34 678 q 171 800 104 800 q 360 725 310 800 q 396 546 396 670 q 353 378 396 459 q 196 242 298 275 q 261 120 224 157 q 364 59 317 60 q 461 93 419 56 q 468 96 464 96 l 468 96 q 483 74 478 96 q 481 40 489 51 q 361 3 449 0 q 285 25 318 4 q 223 81 262 39 q 179 136 193 111 q 143 225 171 151 q 94 214 112 214 q 56 226 74 214 q -3 311 -3 267 q 12 344 -3 331 q 47 357 28 357 q 117 338 80 357 q 175 292 155 318 m 858 84 q 738 -19 797 -19 q 630 16 670 -19 q 590 117 590 51 l 590 756 q 618 772 590 772 q 646 756 646 772 l 646 117 q 738 36 646 36 q 807 106 763 36 q 822 112 812 112 l 822 112 q 849 106 835 112 q 858 84 865 96 z "},"ષ":{"ha":867,"x_min":-12,"x_max":692,"o":"m 180 729 l 475 394 l 475 306 q 339 255 411 255 q 196 295 256 255 q 127 419 127 341 l 127 714 q 72 747 127 747 q 47 738 65 747 q 22 729 30 729 q -1 739 11 729 q -12 760 -12 748 q -9 769 -12 765 q 72 803 26 803 q 140 785 110 803 q 180 729 174 764 m 441 350 l 182 645 l 182 419 q 317 313 182 331 q 441 350 369 305 m 692 84 q 571 -19 630 -19 q 464 16 505 -19 q 424 117 424 51 l 424 756 q 452 772 424 772 q 480 756 480 772 l 480 117 q 571 36 480 36 q 641 106 596 36 q 655 112 646 112 l 655 112 q 682 106 669 112 q 692 84 698 96 z "},"સ":{"ha":867,"x_min":-6,"x_max":788,"o":"m 89 325 q 62 347 82 347 q 46 332 43 347 q 61 319 48 320 q 89 325 75 317 m 344 489 q 422 456 390 458 q 527 487 455 453 q 552 480 538 493 q 565 454 565 467 q 562 446 565 449 q 440 399 514 399 q 331 435 394 399 q 260 331 308 375 q 149 275 208 285 q 195 139 173 207 q 298 43 238 43 q 368 62 329 43 l 404 81 q 427 59 418 81 q 424 29 435 37 q 367 -1 390 5 q 298 -7 343 -8 q 168 111 227 -5 q 112 260 127 193 q -4 353 -4 260 q 18 390 -4 377 q 62 403 37 403 q 134 334 106 403 q 248 398 202 336 q 292 525 292 456 q 261 685 292 633 q 120 751 221 751 q 77 738 97 751 l 35 710 q 28 708 32 708 q 5 719 16 708 q -6 741 -6 730 q 43 791 -6 773 q 120 807 83 807 q 304 728 250 807 q 347 525 347 663 q 344 489 347 511 m 788 84 q 668 -19 727 -19 q 561 16 601 -19 q 521 117 521 51 l 521 756 q 549 772 521 772 q 576 756 576 772 l 576 117 q 668 36 576 36 q 738 106 693 36 q 753 112 743 112 l 753 112 q 779 106 765 112 q 788 84 796 96 z "},"હ":{"ha":867,"x_min":-1,"x_max":675,"o":"m 420 765 l 420 765 q 445 746 429 765 q 450 719 458 731 q 389 662 421 696 q 353 604 353 621 q 404 543 353 583 q 508 461 456 503 q 561 339 561 403 q 515 233 561 274 q 403 192 468 192 q 246 251 313 192 q 120 409 208 285 q 117 415 117 411 l 117 415 q 136 441 117 430 q 164 441 154 454 l 264 313 q 403 247 328 247 q 474 273 443 247 q 505 339 505 299 q 437 449 505 387 q 330 529 384 489 q 289 590 289 562 q 320 670 289 627 q 380 737 350 703 q 400 752 382 740 q 420 765 418 765 m 655 109 q 675 85 664 105 q 653 58 676 78 q 567 10 622 29 q 400 -24 471 -24 q 320 -16 357 -24 q 28 211 113 24 q -1 343 -1 275 q 54 557 -1 432 q 65 564 58 564 q 92 552 79 564 q 102 527 106 539 q 57 332 57 403 q 78 233 57 279 q 323 39 145 87 q 416 25 375 25 q 557 64 478 25 q 604 91 580 78 q 651 111 641 111 q 655 109 654 111 z "},"઼":{"ha":0,"x_min":43,"x_max":165,"o":"m 165 -112 q 147 -155 165 -137 q 105 -174 129 -174 q 61 -155 79 -174 q 43 -112 43 -137 q 62 -70 43 -88 q 105 -53 81 -53 q 147 -70 129 -53 q 165 -112 165 -87 z "},"ઽ":{"ha":744,"x_min":18,"x_max":666,"o":"m 666 320 q 604 128 666 208 q 429 39 538 39 q 115 245 239 39 q 19 410 91 285 q 18 416 18 412 l 18 416 q 39 441 18 431 q 67 440 59 453 l 152 289 q 429 94 260 94 q 564 168 513 94 q 610 320 610 233 q 484 425 610 425 q 391 419 458 425 q 365 418 379 418 q 213 475 273 418 q 153 625 153 532 q 191 737 153 691 q 295 787 231 787 l 582 787 q 599 759 599 787 q 582 731 599 731 l 295 731 q 232 699 255 731 q 208 625 208 667 q 261 509 208 551 q 387 475 311 469 q 469 480 442 480 q 610 449 564 480 q 666 320 666 411 z "},"ા":{"ha":356,"x_min":0,"x_max":268,"o":"m 268 84 q 147 -19 206 -19 q 40 16 81 -19 q 0 117 0 51 l 0 756 q 28 772 0 772 q 56 756 56 772 l 56 117 q 147 36 56 36 q 217 106 173 36 q 232 112 223 112 l 232 112 q 258 106 245 112 q 268 84 275 96 z "},"િ":{"ha":322,"x_min":0,"x_max":815,"o":"m 56 117 q 147 36 56 36 q 217 106 173 36 q 232 112 223 112 l 232 112 q 258 106 245 112 q 268 84 275 96 q 147 -19 206 -19 q 40 16 81 -19 q 0 117 0 51 l 0 930 q 51 1078 0 1020 q 138 1121 74 1105 q 245 1136 194 1136 q 588 1100 475 1136 q 815 878 767 1043 q 793 864 819 864 q 753 889 762 864 q 584 1041 717 995 q 245 1083 464 1083 q 162 1073 207 1083 q 92 1043 108 1061 q 56 940 56 1001 l 56 117 z "},"ી":{"ha":299,"x_min":-341,"x_max":269,"o":"m 267 82 q 210 6 226 21 q 132 -19 182 -19 q 0 138 0 -19 l 0 917 q -34 1011 0 971 q -122 1055 -70 1055 q -199 1046 -175 1055 q -252 990 -233 1032 q -286 820 -287 916 q -314 804 -286 804 q -341 820 -341 804 q -290 1045 -344 975 q -122 1111 -237 1111 q 6 1050 -47 1111 q 56 917 56 994 l 56 138 q 132 36 56 36 q 186 64 164 36 l 217 104 q 232 109 223 109 l 232 109 q 255 102 242 109 q 269 86 269 95 q 267 82 269 84 z "},"ુ":{"ha":0,"x_min":-635,"x_max":15,"o":"m 15 -158 q -69 -303 15 -247 q -238 -351 -144 -351 q -464 -275 -368 -351 q -632 -87 -518 -232 q -635 -82 -635 -84 l -635 -82 q -613 -61 -635 -71 q -582 -62 -591 -52 q -441 -220 -492 -178 q -238 -295 -349 -295 q -108 -264 -165 -295 q -40 -158 -40 -225 q -87 -78 -40 -107 q -182 -52 -129 -52 q -285 -121 -245 -52 q -295 -127 -289 -127 q -323 -115 -309 -127 q -332 -90 -338 -103 q -182 4 -285 4 q -47 -37 -104 4 q 15 -158 15 -82 z "},"ૂ":{"ha":0,"x_min":-552,"x_max":72,"o":"m 72 -410 l 72 -410 q 50 -434 72 -424 q 21 -429 28 -443 q -347 -68 -148 -68 q -447 -94 -405 -68 q -497 -179 -497 -125 q -369 -268 -497 -268 q -272 -250 -317 -268 q -252 -261 -261 -246 q -243 -289 -243 -276 q -250 -300 -243 -299 q -376 -310 -312 -310 q -552 -179 -552 -310 q -487 -54 -552 -100 q -347 -12 -430 -12 q -63 -134 -196 -12 q 72 -410 72 -259 z "},"ૃ":{"ha":0,"x_min":-387,"x_max":36,"o":"m 36 -242 q -167 -344 -35 -344 q -320 -302 -263 -344 q -387 -161 -387 -253 q -322 -56 -387 -104 q -208 4 -301 -40 q -188 -5 -197 10 q -180 -32 -180 -19 q -189 -49 -180 -44 q -282 -90 -205 -56 q -331 -161 -331 -112 q -167 -289 -331 -289 q -77 -258 -116 -289 q -3 -202 -59 -245 q 6 -200 1 -200 l 6 -200 q 33 -215 20 -200 q 36 -242 45 -229 z "},"ૄ":{"ha":0,"x_min":-397,"x_max":-117,"o":"m -117 -147 q -251 -215 -165 -215 q -397 -94 -397 -215 q -354 -24 -397 -55 q -279 15 -341 -13 q -261 -9 -261 24 q -267 -19 -261 -17 l -326 -46 q -360 -94 -360 -65 q -251 -179 -360 -179 q -192 -158 -220 -179 q -137 -120 -144 -123 l -137 -120 q -119 -129 -128 -120 q -117 -147 -110 -139 m -117 -347 q -251 -416 -165 -416 q -397 -294 -397 -416 q -354 -225 -397 -255 q -279 -185 -338 -213 q -261 -208 -261 -176 q -267 -220 -261 -217 q -326 -246 -294 -233 q -360 -294 -360 -266 q -251 -379 -360 -379 q -192 -359 -221 -379 q -137 -320 -146 -326 l -137 -320 q -119 -329 -128 -320 q -117 -347 -110 -339 z "},"ૅ":{"ha":0,"x_min":-460,"x_max":-59,"o":"m -460 1162 l -460 1162 q -438 1177 -460 1175 q -407 1164 -414 1180 q -306 980 -316 994 q -169 884 -241 884 q -92 904 -138 884 q -68 895 -80 909 q -59 868 -59 881 q -67 854 -59 858 l -106 834 q -169 829 -125 829 q -331 947 -247 829 q -402 1060 -345 967 q -460 1162 -460 1157 z "},"ે":{"ha":0,"x_min":-456,"x_max":-54,"o":"m -54 844 l -54 844 q -77 829 -54 832 q -108 841 -100 826 q -208 1026 -199 1012 q -346 1122 -273 1122 q -422 1102 -377 1122 q -446 1112 -435 1096 q -456 1139 -456 1124 q -447 1152 -456 1148 l -409 1172 q -346 1177 -390 1177 q -183 1059 -268 1177 q -112 947 -168 1038 q -54 844 -54 851 z "},"ૈ":{"ha":0,"x_min":-599,"x_max":-53,"o":"m -53 858 q -62 834 -47 845 q -90 824 -77 824 q -103 831 -100 824 q -202 1041 -160 976 q -357 1165 -268 1138 q -422 1159 -380 1172 q -445 1168 -435 1154 q -456 1196 -456 1183 q -447 1209 -456 1207 q -326 1211 -375 1227 q -53 858 -181 1164 m -147 827 q -143 814 -143 823 l -143 814 q -155 785 -143 799 q -180 782 -168 770 q -334 918 -303 896 q -489 979 -416 979 q -565 960 -520 979 q -588 968 -578 954 q -599 996 -599 982 q -590 1010 -599 1005 l -552 1029 q -489 1035 -533 1035 q -317 968 -411 1035 q -147 827 -275 939 z "},"ૉ":{"ha":356,"x_min":-337,"x_max":268,"o":"m 268 84 q 147 -19 206 -19 q 40 16 81 -19 q 0 117 0 51 l 0 756 q 28 772 0 772 q 56 756 56 772 l 56 117 q 147 36 56 36 q 217 106 173 36 q 232 112 223 112 l 232 112 q 258 106 245 112 q 268 84 275 96 m -337 1139 l -337 1139 q -314 1154 -337 1151 q -282 1141 -291 1157 q -182 957 -192 971 q -45 861 -117 861 q 32 881 -13 861 q 55 872 45 886 q 65 844 65 858 q 57 831 65 834 l 18 811 q -45 806 0 806 q -207 924 -123 806 q -279 1038 -222 944 q -337 1139 -337 1133 z "},"ો":{"ha":356,"x_min":-371,"x_max":268,"o":"m 268 84 q 147 -19 206 -19 q 40 16 81 -19 q 0 117 0 51 l 0 756 q 28 772 0 772 q 56 756 56 772 l 56 117 q 147 36 56 36 q 217 106 173 36 q 232 112 223 112 l 232 112 q 258 106 245 112 q 268 84 275 96 m 31 821 l 31 821 q 8 806 31 809 q -24 818 -15 803 q -124 1002 -114 989 q -261 1098 -189 1098 q -338 1079 -293 1098 q -362 1089 -351 1073 q -371 1116 -371 1101 q -363 1129 -371 1125 l -324 1148 q -261 1154 -306 1154 q -99 1036 -183 1154 q -28 924 -83 1015 q 31 821 31 828 z "},"ૌ":{"ha":356,"x_min":-508,"x_max":268,"o":"m 268 84 q 147 -19 206 -19 q 40 16 81 -19 q 0 117 0 51 l 0 756 q 28 772 0 772 q 56 756 56 772 l 56 117 q 147 36 56 36 q 217 106 173 36 q 232 112 223 112 l 232 112 q 258 106 245 112 q 268 84 275 96 m 37 864 q 28 840 43 851 q 0 829 13 829 q -12 836 -10 829 q -112 1046 -71 982 q -267 1171 -177 1143 q -332 1163 -290 1178 q -355 1174 -344 1160 q -365 1202 -365 1188 q -357 1214 -365 1211 q -236 1216 -286 1233 q 37 864 -91 1170 m -244 924 q -399 985 -326 985 q -475 965 -430 985 q -498 974 -488 960 q -508 1001 -508 988 q -500 1015 -508 1011 l -461 1035 q -399 1041 -443 1041 q -226 974 -321 1041 q -58 832 -186 945 q -53 819 -53 829 l -53 819 q -79 787 -53 810 l -244 924 z "},"્":{"ha":0,"x_min":-574,"x_max":-68,"o":"m -68 -341 l -68 -341 q -87 -365 -68 -356 q -117 -364 -108 -375 q -401 -92 -309 -92 q -545 -125 -459 -92 q -565 -115 -556 -129 q -574 -89 -574 -101 q -567 -75 -574 -78 q -401 -36 -475 -36 q -227 -152 -343 -36 q -140 -247 -201 -177 q -68 -341 -68 -329 z "},"ૐ":{"ha":1178,"x_min":6,"x_max":1094,"o":"m 391 437 q 250 371 347 404 q 231 382 238 366 q 225 406 225 392 q 233 424 225 420 q 366 484 358 479 q 450 611 450 537 q 403 706 450 668 q 300 744 357 744 q 218 718 267 744 q 140 683 162 688 q 115 694 128 681 q 103 719 103 707 q 109 731 103 728 q 300 800 241 800 q 442 747 382 800 q 505 611 505 692 q 437 472 505 537 q 505 457 439 469 q 599 496 554 457 l 666 567 q 762 658 732 637 q 881 697 815 697 q 1039 620 979 697 q 1094 447 1094 549 q 1024 251 1094 335 q 839 164 950 163 q 598 344 681 165 q 623 363 589 363 q 653 350 647 363 q 723 252 684 281 q 839 220 767 220 q 985 291 928 220 q 1039 447 1039 357 q 999 579 1039 524 q 881 642 954 642 q 785 607 830 642 q 630 444 766 593 q 524 400 580 400 q 492 403 508 400 q 548 236 548 318 q 486 75 548 142 q 331 9 424 9 q 105 152 201 9 q 6 372 37 250 q 39 394 0 394 q 61 384 57 394 q 129 211 86 317 q 331 64 189 64 q 447 114 402 64 q 492 236 492 164 q 391 437 492 338 m 750 1038 q 729 991 750 1011 q 682 971 709 971 q 634 991 655 971 q 614 1038 614 1011 q 634 1086 614 1066 q 682 1106 654 1106 q 730 1086 710 1106 q 750 1038 750 1066 m 1004 995 q 872 840 991 906 q 670 784 765 781 q 465 861 559 787 q 374 990 383 928 q 385 1008 372 999 q 407 1017 397 1017 q 415 1013 413 1017 q 670 831 486 828 q 952 1005 832 834 q 967 1011 954 1011 q 1004 995 1006 1011 z "},"ૠ":{"ha":1067,"x_min":66,"x_max":1000,"o":"m 461 369 q 421 417 456 375 q 373 459 399 444 q 233 509 289 511 q 158 490 192 508 q 97 446 142 482 q 91 444 94 444 q 74 458 82 444 q 66 482 66 472 q 71 493 66 490 q 140 539 94 507 q 233 565 186 564 q 388 512 298 567 q 437 468 415 496 q 478 419 476 421 l 478 318 q 352 212 435 288 q 187 68 249 119 q 182 65 184 65 q 164 80 173 65 q 156 105 156 94 q 160 115 156 111 q 461 369 269 230 m 717 436 q 828 573 828 491 q 801 616 828 599 q 749 630 778 630 q 686 602 712 630 q 660 535 660 574 q 717 436 660 486 m 516 388 q 671 418 580 385 q 606 535 606 475 q 648 637 606 596 q 749 679 690 679 q 838 652 800 679 q 881 573 881 622 q 762 406 881 473 q 838 360 822 367 q 898 346 868 345 q 916 333 908 347 q 925 307 925 318 q 916 300 925 296 q 858 302 897 309 q 766 160 766 287 q 804 89 766 118 q 884 61 841 59 q 930 82 897 62 q 973 103 964 103 l 973 103 q 999 88 986 103 q 1000 64 1011 74 q 887 12 953 16 q 767 52 822 9 q 713 160 713 96 q 801 329 713 279 q 755 356 776 340 q 717 385 720 383 q 516 340 616 340 l 516 388 m 514 398 m 670 112 q 637 30 666 61 q 569 -1 609 -1 q 471 117 471 -1 l 471 756 q 499 772 471 772 q 527 756 527 772 l 527 117 q 562 49 527 49 q 576 50 569 49 q 612 99 602 55 q 634 140 621 140 l 634 140 q 662 132 646 140 q 670 112 671 127 z "},"ૡ":{"ha":967,"x_min":18,"x_max":918,"o":"m 703 508 l 647 534 l 647 766 q 675 784 647 784 q 703 766 703 784 l 703 508 m 824 317 q 811 295 824 299 l 768 281 q 697 245 734 270 q 640 210 657 218 q 592 152 592 190 q 691 53 592 53 q 760 73 734 53 q 787 84 774 84 q 814 48 814 84 q 795 26 814 21 q 701 8 750 8 q 587 42 632 8 q 536 152 536 82 q 599 239 536 200 q 666 285 605 249 q 796 345 763 332 q 815 339 807 350 q 824 317 824 327 m 822 317 l 766 317 q 715 436 766 388 q 593 484 664 484 q 493 462 545 484 q 410 406 442 440 q 439 325 439 357 q 428 262 439 291 q 385 223 412 223 q 334 251 355 223 q 314 307 314 276 q 346 410 314 363 q 229 483 294 483 q 116 443 158 483 q 74 332 74 403 q 130 179 74 304 q 207 34 184 61 q 210 27 210 31 q 196 7 210 16 q 173 -3 182 -3 q 160 3 164 -3 q 77 162 130 40 q 18 332 18 294 q 75 484 18 430 q 229 539 131 539 q 379 450 308 539 q 479 514 418 488 q 593 540 540 540 q 753 474 685 540 q 822 317 822 409 m 384 322 q 376 351 383 340 q 369 307 369 328 q 379 264 369 278 q 384 322 385 274 m 785 -182 q 676 -141 715 -182 q 637 -35 637 -100 q 680 35 637 5 q 753 74 696 46 q 763 76 759 76 q 780 45 780 76 q 770 29 780 34 q 714 4 744 16 q 686 -35 686 -12 q 710 -103 686 -76 q 785 -133 737 -133 q 840 -113 810 -133 q 891 -79 866 -96 q 916 -90 905 -79 q 918 -114 927 -102 q 785 -182 870 -182 z "},"ૢ":{"ha":0,"x_min":-700,"x_max":-67,"o":"m -450 -153 q -455 -184 -455 -170 q -448 -215 -455 -204 q -445 -174 -444 -207 q -450 -153 -445 -161 m -176 -177 q -212 -94 -176 -129 q -298 -59 -248 -59 q -427 -115 -375 -59 q -406 -172 -406 -150 q -444 -243 -406 -243 q -479 -224 -464 -243 q -493 -184 -493 -205 q -471 -112 -493 -146 q -552 -60 -508 -60 q -632 -89 -602 -60 q -662 -167 -662 -117 q -622 -273 -662 -187 q -569 -376 -584 -356 q -566 -381 -566 -378 q -576 -394 -566 -388 q -593 -401 -585 -401 q -601 -397 -599 -401 q -660 -286 -622 -371 q -700 -167 -700 -194 q -661 -60 -700 -99 q -552 -22 -622 -22 q -448 -84 -498 -22 q -298 -21 -383 -21 q -186 -67 -234 -21 q -137 -177 -137 -113 l -176 -177 m -67 -385 q -208 -457 -117 -457 q -317 -427 -275 -457 q -363 -328 -363 -393 q -317 -254 -363 -287 q -251 -215 -307 -247 q -154 -162 -160 -162 q -140 -188 -140 -162 q -146 -200 -140 -197 l -178 -219 q -289 -279 -254 -261 q -323 -328 -323 -296 q -208 -417 -323 -417 q -146 -396 -174 -417 q -94 -358 -132 -387 q -88 -356 -91 -356 l -88 -356 q -69 -366 -78 -356 q -67 -385 -60 -376 z "},"ૣ":{"ha":0,"x_min":-665,"x_max":-35,"o":"m -101 -183 q -108 -199 -101 -196 l -139 -208 q -189 -233 -164 -216 q -229 -258 -218 -252 q -263 -298 -263 -271 q -194 -367 -263 -367 q -145 -354 -164 -367 q -127 -345 -135 -345 q -106 -371 -106 -345 q -121 -387 -106 -390 q -186 -400 -152 -400 q -267 -375 -235 -400 q -301 -298 -301 -347 q -257 -238 -301 -265 q -211 -205 -253 -230 q -120 -163 -144 -173 q -106 -167 -112 -159 q -101 -183 -101 -176 m -102 -183 l -140 -183 q -176 -99 -140 -133 q -262 -65 -212 -65 q -390 -121 -340 -65 q -370 -177 -370 -154 q -408 -248 -370 -248 q -443 -230 -429 -248 q -458 -190 -458 -211 q -435 -118 -458 -151 q -517 -66 -472 -66 q -596 -94 -567 -66 q -625 -173 -625 -123 q -586 -279 -625 -192 q -532 -382 -548 -362 q -530 -387 -530 -384 q -540 -400 -530 -393 q -556 -407 -550 -407 q -565 -403 -562 -407 q -623 -291 -585 -377 q -665 -173 -665 -200 q -625 -66 -665 -105 q -517 -28 -585 -28 q -411 -89 -461 -28 q -262 -27 -346 -27 q -150 -73 -198 -27 q -102 -183 -102 -119 m -409 -179 q -413 -158 -409 -167 q -418 -190 -418 -176 q -411 -220 -418 -210 q -409 -179 -408 -213 m -129 -532 q -204 -503 -176 -532 q -231 -430 -231 -474 q -200 -380 -231 -401 q -151 -353 -189 -372 q -131 -373 -131 -344 q -138 -385 -131 -381 q -177 -402 -156 -393 q -198 -430 -198 -413 q -179 -478 -198 -458 q -129 -498 -161 -498 q -89 -484 -110 -498 q -54 -459 -71 -472 q -36 -468 -44 -459 q -35 -484 -29 -476 q -129 -532 -68 -532 z "},"૦":{"ha":778,"x_min":15,"x_max":651,"o":"m 651 404 q 564 162 650 261 q 334 56 474 58 q 110 141 205 54 q 15 354 15 227 q 107 601 15 502 q 346 703 200 700 q 559 614 465 705 q 651 404 652 523 m 596 404 q 521 576 598 502 q 347 647 445 649 q 148 561 224 645 q 71 354 71 478 q 150 180 71 250 q 334 111 229 109 q 524 202 449 113 q 596 404 595 286 z "},"૧":{"ha":744,"x_min":21,"x_max":590,"o":"m 317 517 l 317 675 q 292 724 317 705 q 236 743 267 743 q 122 693 167 743 q 77 573 77 643 q 112 492 77 525 q 195 459 147 459 q 317 517 241 459 m 317 447 q 195 404 251 404 q 72 452 123 404 q 21 573 21 501 q 82 732 21 665 q 236 799 144 799 q 330 764 288 799 q 372 678 372 728 l 372 137 q 382 74 372 91 q 450 44 398 44 q 508 71 481 44 q 549 122 519 82 q 557 127 552 127 l 557 127 q 584 113 571 127 q 590 86 598 99 q 450 -12 531 -12 q 344 27 376 -12 q 317 137 317 61 l 317 447 z "},"૨":{"ha":744,"x_min":-15,"x_max":562,"o":"m 175 318 q 132 365 158 359 q 108 362 121 368 q 96 344 96 356 q 175 318 93 318 m 220 323 q 340 395 294 338 q 382 529 382 451 q 322 681 382 623 q 168 739 263 739 q 92 722 138 739 q 16 700 36 702 q -5 711 5 698 q -15 736 -15 724 q -9 750 -15 745 q 168 794 62 794 q 363 722 288 794 q 437 529 437 649 q 384 363 437 434 q 239 270 331 292 q 261 205 248 240 q 401 46 321 46 q 532 80 475 46 q 539 81 534 81 l 539 81 q 562 64 552 81 q 562 39 573 47 q 401 -7 506 -7 q 283 62 341 -7 q 211 186 239 115 q 190 263 201 211 q 114 270 156 263 q 46 344 43 285 q 70 396 47 378 q 128 411 94 413 q 220 323 186 407 z "},"૩":{"ha":778,"x_min":3,"x_max":683,"o":"m 536 412 q 456 385 519 404 q 326 369 384 363 q 311 396 311 371 q 329 425 311 426 q 439 437 386 422 q 560 484 523 462 q 620 579 617 519 q 552 699 623 657 q 411 734 495 734 q 288 716 341 734 q 171 675 229 695 q 151 686 159 670 q 143 711 143 698 q 152 728 143 724 q 411 788 283 788 q 595 738 517 788 q 675 576 683 679 q 579 435 668 486 q 683 202 683 307 q 610 47 683 105 q 441 -6 543 -6 q 6 351 294 -6 q 3 359 3 354 l 3 359 q 24 381 3 371 q 53 379 44 390 q 255 152 178 224 q 441 50 363 50 q 570 87 518 50 q 627 202 627 129 q 536 412 627 301 z "},"૪":{"ha":811,"x_min":18,"x_max":754,"o":"m 401 439 q 257 171 257 292 q 294 71 257 111 q 390 32 332 28 q 486 82 449 36 q 524 187 524 128 q 401 439 524 300 m 365 477 q 215 613 304 537 q 24 760 213 614 q 18 771 18 764 l 18 771 q 32 798 18 784 q 57 804 46 811 q 251 654 126 760 q 403 515 341 578 l 549 653 q 643 731 587 689 l 729 794 q 752 775 742 794 q 754 747 763 757 q 673 678 729 717 q 588 614 608 633 l 439 477 q 579 187 579 319 q 527 44 579 106 q 393 -24 474 -18 q 253 29 308 -30 q 201 171 201 84 q 365 477 201 307 z "},"૫":{"ha":778,"x_min":-21,"x_max":714,"o":"m 482 294 q 294 229 388 229 q 175 286 222 229 q 130 414 130 340 l 130 660 q 72 700 130 707 q 42 679 63 699 q 15 658 20 658 q -9 667 4 658 q -21 686 -21 675 q -18 694 -21 691 q 18 735 16 732 q 65 756 38 753 q 150 734 114 761 q 186 658 186 707 l 186 414 q 214 325 186 362 q 294 285 245 285 q 482 364 396 285 l 483 768 q 511 785 483 785 q 539 768 539 785 l 537 122 q 583 39 537 39 q 635 62 613 39 q 664 106 644 75 q 679 114 669 114 q 704 105 691 114 q 714 84 717 96 q 583 -16 684 -16 q 506 31 535 -16 q 482 122 482 71 l 482 294 z "},"૬":{"ha":645,"x_min":18,"x_max":510,"o":"m 205 -4 q 181 27 181 0 q 200 45 181 48 q 341 29 282 29 q 456 80 446 29 q 433 139 460 107 q 351 177 401 175 q 225 210 294 181 q 107 341 115 257 q 177 462 102 400 q 63 527 108 481 q 18 622 18 573 q 154 740 18 704 q 352 760 245 764 q 381 724 381 754 q 358 703 381 700 q 192 685 270 702 q 82 607 78 658 q 219 504 90 528 q 366 490 227 502 q 382 482 375 492 q 389 458 389 471 q 371 439 389 438 q 170 350 175 437 q 253 255 167 293 q 390 216 294 238 q 510 73 504 190 q 458 -3 512 23 q 338 -25 412 -25 q 205 -4 262 -25 z "},"૭":{"ha":778,"x_min":-20,"x_max":625,"o":"m 625 422 q 552 145 625 266 q 319 3 468 3 q 99 129 210 3 q -20 345 -2 242 q 8 369 -24 364 q 27 359 23 372 q 139 159 58 251 q 319 59 230 59 q 512 185 443 59 q 570 422 570 289 q 529 624 570 547 q 360 719 474 727 q 253 678 297 716 q 205 577 205 638 q 239 470 205 515 q 335 416 274 419 q 414 443 376 415 q 474 503 431 456 q 482 507 477 507 l 482 507 q 509 493 495 507 q 515 467 524 478 q 332 361 428 358 q 197 431 248 364 q 150 577 150 491 q 213 717 150 660 q 357 775 273 770 q 567 666 495 784 q 625 422 625 569 z "},"૮":{"ha":778,"x_min":22,"x_max":534,"o":"m 533 72 q 416 9 446 20 q 283 -12 368 -12 q 100 38 169 -12 q 22 205 21 96 q 183 493 24 320 q 489 762 305 624 q 499 764 493 764 l 499 764 q 529 752 511 764 q 533 731 546 740 q 247 459 388 617 q 84 200 87 282 q 251 50 80 53 q 385 68 316 49 q 505 125 461 89 q 511 128 508 128 l 511 128 q 534 103 524 128 q 533 72 545 79 z "},"૯":{"ha":778,"x_min":24,"x_max":711,"o":"m 711 552 q 375 336 610 480 q 356 351 369 332 q 343 378 343 369 q 346 384 343 382 l 494 472 q 664 595 572 518 q 675 599 669 599 l 675 599 q 709 581 692 599 q 711 552 727 564 m 688 82 q 410 -12 539 -12 q 146 72 256 -12 q 24 313 24 164 q 307 787 24 564 q 316 790 311 790 l 316 790 q 345 774 331 790 q 346 746 360 758 q 164 562 223 646 q 80 313 80 444 q 186 112 80 189 q 410 44 281 44 q 657 127 549 44 q 664 129 660 129 l 664 129 q 688 108 676 129 q 688 82 698 88 z "},"૱":{"ha":867,"x_min":-1197,"x_max":811,"o":"m 811 180 q 751 78 811 78 q 648 17 751 17 q 545 78 545 17 q 484 180 484 78 q 545 286 484 286 q 648 345 545 345 q 751 286 751 345 q 811 180 811 286 m -1197 1389 l -1194 1389 l -1197 1389 m 762 181 q 720 253 762 253 q 648 295 720 295 q 576 253 576 295 q 534 181 534 253 q 576 108 534 108 q 648 67 576 67 q 720 108 720 67 q 762 181 762 108 m 435 5 q 356 -17 386 -16 q 159 162 250 -22 q 19 233 19 168 q 95 301 19 299 q 149 270 117 302 q 191 215 175 244 q 285 250 245 224 q 336 333 336 285 q 277 464 336 393 q 161 441 231 441 q 147 461 147 441 q 170 494 147 497 q 251 510 213 489 q 318 607 318 547 q 282 693 318 661 q 192 725 246 725 q 82 688 162 725 q 76 686 79 686 q 57 697 65 686 q 49 719 49 708 q 57 735 49 730 q 192 777 129 777 q 319 730 269 777 q 369 607 369 684 q 316 490 369 538 q 388 333 388 414 q 334 217 388 265 q 213 164 285 173 q 353 35 280 33 q 393 46 367 35 q 428 56 419 56 q 445 25 445 56 q 435 5 445 10 m 95 249 q 66 235 66 249 q 108 210 66 210 q 137 212 118 210 q 95 249 116 249 z "},"​":{"ha":0,"x_min":-10,"x_max":6,"o":"m -10 117 l -10 568 l 6 568 l 6 117 l -10 117 z "},"‌":{"ha":0,"x_min":-183,"x_max":178,"o":"m 178 701 l 148 670 l -176 995 l -146 1025 l 178 701 m 171 998 l -153 673 l -183 703 l 141 1027 l 171 998 m 3 -86 q -19 -75 -19 -86 l -19 856 q 3 867 -19 867 q 25 856 25 867 l 25 -75 q 3 -86 25 -86 z "},"‍":{"ha":0,"x_min":-19,"x_max":25,"o":"m 3 -86 q -19 -75 -19 -86 l -19 856 q 3 867 -19 867 q 25 856 25 867 l 25 -75 q 3 -86 25 -86 z "},"‘":{"ha":278,"x_min":89,"x_max":227,"o":"m 227 881 q 145 775 180 857 q 187 759 168 775 q 205 719 205 742 q 188 668 205 690 q 142 647 171 646 q 89 734 86 650 q 150 867 91 803 q 211 917 196 917 l 227 881 z "},"’":{"ha":278,"x_min":77,"x_max":204,"o":"m 204 850 q 102 688 197 688 q 84 699 92 688 q 77 721 77 711 q 111 740 77 731 q 149 809 136 750 q 106 825 126 809 q 87 864 87 841 q 105 916 87 894 q 152 936 123 937 q 204 850 208 933 z "},"“":{"ha":555,"x_min":89,"x_max":440,"o":"m 227 881 q 145 775 180 857 q 187 759 168 775 q 205 719 205 742 q 188 668 205 690 q 142 647 171 646 q 89 734 86 650 q 150 867 91 803 q 211 917 196 917 l 227 881 m 440 884 q 360 776 399 862 q 402 760 383 776 q 421 721 421 743 q 404 670 421 691 q 357 648 386 647 q 304 735 301 651 q 365 868 307 804 q 427 918 411 918 l 440 884 z "},"”":{"ha":555,"x_min":115,"x_max":467,"o":"m 467 839 q 406 706 464 769 q 344 655 360 655 l 328 692 q 411 797 375 716 q 369 813 388 797 q 350 853 350 830 q 367 905 350 882 q 414 925 385 927 q 467 839 470 923 m 251 837 q 190 704 248 768 q 129 654 145 654 l 115 688 q 196 796 157 710 q 153 812 173 796 q 134 852 134 829 q 152 903 134 881 q 199 924 170 925 q 251 837 254 921 z "},"◌":{"ha":778,"x_min":80,"x_max":685,"o":"m 497 633 l 478 589 q 382 611 434 611 q 283 588 331 611 l 266 633 q 379 656 322 656 q 497 633 440 656 m 685 392 l 639 385 q 542 554 623 489 l 570 589 q 685 392 670 515 m 223 554 q 124 385 137 492 l 80 392 q 193 589 97 520 l 223 554 m 221 146 l 192 110 q 80 307 93 188 l 124 313 q 221 146 142 204 m 683 307 q 570 107 668 188 l 542 143 q 639 313 627 211 l 683 307 m 497 65 q 387 43 443 43 q 266 67 326 43 l 285 108 q 384 89 332 89 q 478 108 435 89 l 497 65 z "}}}
